<svg width="1280" height="832" viewBox="0 0 1280 832" fill="none" xmlns="http://www.w3.org/2000/svg">
    <path fill-rule="evenodd" clip-rule="evenodd"
        d="M2330.8 560.999L1126.91 -388.197L1125.98 -387.827L1191.68 -336.026L1113.44 -304.825L1047.74 -356.626L1046.81 -356.255L1112.51 -304.454L1034.27 -273.253L968.572 -325.054L967.643 -324.683L1033.34 -272.883L955.105 -241.682L889.405 -293.482L888.476 -293.112L954.176 -241.311L875.938 -210.11L810.238 -261.91L809.309 -261.54L875.009 -209.74L796.771 -178.538L731.071 -230.339L730.142 -229.969L795.842 -178.168L717.604 -146.967L651.904 -198.767L650.975 -198.397L716.675 -146.596L638.437 -115.395L572.737 -167.196L571.808 -166.825L637.508 -115.025L559.27 -83.8235L493.57 -135.624L492.641 -135.254L558.341 -83.4531L480.103 -52.2518L414.403 -104.052L413.474 -103.682L479.174 -51.8814L400.936 -20.6802L335.236 -72.4807L334.307 -72.1102L400.007 -20.3098L321.769 10.8915L256.069 -40.909L255.14 -40.5385L320.84 11.2619L242.602 42.4631L176.902 -9.33752L175.973 -8.96709L241.673 42.8335L163.435 74.0347L97.7353 22.2342L96.8064 22.6046L162.506 74.4052L84.2683 105.606L18.5683 53.8059L17.6395 54.1764L83.3394 105.977L5.10124 137.178L-60.5987 85.3776L-61.5276 85.748L4.17237 137.549L-74.0656 168.75L-139.766 116.949L-140.694 117.32L-74.9944 169.12L-153.233 200.321L-218.933 148.521L-219.862 148.891L-154.161 200.692L-232.4 231.893L-298.1 180.093L-299.028 180.463L904.862 1129.66L905.327 1129.47L905.719 1129.78L2330.72 561.493L2330.33 561.184L2330.8 560.999ZM905.398 1128.98L983.637 1097.78L917.492 1045.63L839.254 1076.83L905.398 1128.98ZM838.469 1076.21L916.707 1045.01L850.563 992.857L772.325 1024.06L838.469 1076.21ZM771.54 1023.44L849.778 992.238L783.634 940.087L705.396 971.289L771.54 1023.44ZM704.61 970.669L782.849 939.468L716.705 887.317L638.466 918.519L704.61 970.669ZM637.681 917.9L715.919 886.698L649.775 834.548L571.537 865.749L637.681 917.9ZM570.752 865.13L648.99 833.929L582.846 781.778L504.608 812.979L570.752 865.13ZM503.823 812.36L582.061 781.159L515.917 729.008L437.679 760.21L503.823 812.36ZM436.893 759.59L515.131 728.389L448.987 676.239L370.749 707.44L436.893 759.59ZM369.964 706.821L448.202 675.619L382.058 623.469L303.82 654.67L369.964 706.821ZM303.035 654.051L381.273 622.85L315.129 570.699L236.891 601.9L303.035 654.051ZM236.105 601.281L314.344 570.08L248.2 517.929L169.961 549.131L236.105 601.281ZM169.176 548.511L247.414 517.31L181.27 465.16L103.032 496.361L169.176 548.511ZM102.247 495.742L180.485 464.54L114.341 412.39L36.1028 443.591L102.247 495.742ZM35.3175 442.972L113.556 411.771L47.4117 359.62L-30.8265 390.821L35.3175 442.972ZM-31.6117 390.202L46.6264 359.001L-19.5176 306.85L-97.7558 338.052L-31.6117 390.202ZM-98.5411 337.432L-20.3029 306.231L-86.4469 254.081L-164.685 285.282L-98.5411 337.432ZM-165.47 284.663L-87.2322 253.462L-153.376 201.311L-231.614 232.512L-165.47 284.663ZM-86.3033 253.091L-152.447 200.94L-74.2092 169.739L-8.06511 221.89L-86.3033 253.091ZM-19.374 305.861L-85.518 253.71L-7.27983 222.509L58.8642 274.66L-19.374 305.861ZM47.5553 358.631L-18.5887 306.48L59.6494 275.279L125.793 327.429L47.5553 358.631ZM114.485 411.4L48.3406 359.25L126.579 328.048L192.723 380.199L114.485 411.4ZM181.414 464.17L115.27 412.019L193.508 380.818L259.652 432.969L181.414 464.17ZM248.343 516.94L182.199 464.789L260.437 433.588L326.581 485.738L248.343 516.94ZM315.273 569.71L249.128 517.559L327.367 486.358L393.511 538.508L315.273 569.71ZM382.202 622.479L316.058 570.329L394.296 539.127L460.44 591.278L382.202 622.479ZM449.131 675.249L382.987 623.098L461.225 591.897L527.369 644.048L449.131 675.249ZM516.06 728.019L449.916 675.868L528.154 644.667L594.299 696.818L516.06 728.019ZM582.99 780.788L516.846 728.638L595.084 697.437L661.228 749.587L582.99 780.788ZM649.919 833.558L583.775 781.408L662.013 750.206L728.157 802.357L649.919 833.558ZM716.848 886.328L650.704 834.177L728.942 802.976L795.086 855.127L716.848 886.328ZM783.778 939.098L717.633 886.947L795.872 855.746L862.016 907.896L783.778 939.098ZM850.707 991.867L784.563 939.717L862.801 908.516L928.945 960.666L850.707 991.867ZM917.636 1044.64L851.492 992.486L929.73 961.285L995.874 1013.44L917.636 1044.64ZM984.565 1097.41L918.421 1045.26L996.66 1014.06L1062.8 1066.21L984.565 1097.41ZM1063.73 1065.84L1141.97 1034.63L1075.83 982.483L997.588 1013.68L1063.73 1065.84ZM996.803 1013.07L1075.04 981.864L1008.9 929.714L930.659 960.915L996.803 1013.07ZM929.874 960.296L1008.11 929.095L941.968 876.944L863.73 908.145L929.874 960.296ZM862.945 907.526L941.183 876.325L875.038 824.174L796.8 855.375L862.945 907.526ZM796.015 854.756L874.253 823.555L808.109 771.405L729.871 802.606L796.015 854.756ZM729.086 801.987L807.324 770.785L741.18 718.635L662.942 749.836L729.086 801.987ZM662.157 749.217L740.395 718.016L674.251 665.865L596.013 697.066L662.157 749.217ZM595.227 696.447L673.465 665.246L607.321 613.095L529.083 644.296L595.227 696.447ZM528.298 643.677L606.536 612.476L540.392 560.326L462.154 591.527L528.298 643.677ZM461.369 590.908L539.607 559.706L473.463 507.556L395.225 538.757L461.369 590.908ZM394.44 538.138L472.678 506.937L406.533 454.786L328.295 485.987L394.44 538.138ZM327.51 485.368L405.748 454.167L339.604 402.016L261.366 433.217L327.51 485.368ZM260.581 432.598L338.819 401.397L272.675 349.247L194.437 380.448L260.581 432.598ZM193.652 379.829L271.89 348.627L205.746 296.477L127.508 327.678L193.652 379.829ZM126.722 327.059L204.96 295.858L138.816 243.707L60.5783 274.908L126.722 327.059ZM59.793 274.289L138.031 243.088L71.887 190.937L-6.35097 222.139L59.793 274.289ZM-7.13625 221.519L71.1017 190.318L4.95765 138.168L-73.2803 169.369L-7.13625 221.519ZM72.0306 189.948L5.88651 137.797L84.1247 106.596L150.269 158.747L72.0306 189.948ZM138.96 242.718L72.8158 190.567L151.054 159.366L217.198 211.516L138.96 242.718ZM205.889 295.487L139.745 243.337L217.983 212.135L284.127 264.286L205.889 295.487ZM272.818 348.257L206.674 296.106L284.913 264.905L351.057 317.056L272.818 348.257ZM339.748 401.027L273.604 348.876L351.842 317.675L417.986 369.825L339.748 401.027ZM406.677 453.796L340.533 401.646L418.771 370.445L484.915 422.595L406.677 453.796ZM473.606 506.566L407.462 454.416L485.7 423.214L551.845 475.365L473.606 506.566ZM540.536 559.336L474.392 507.185L552.63 475.984L618.774 528.135L540.536 559.336ZM607.465 612.106L541.321 559.955L619.559 528.754L685.703 580.904L607.465 612.106ZM674.394 664.876L608.25 612.725L686.488 581.524L752.632 633.674L674.394 664.876ZM741.323 717.645L675.179 665.495L753.418 634.293L819.562 686.444L741.323 717.645ZM808.253 770.415L742.109 718.264L820.347 687.063L886.491 739.214L808.253 770.415ZM875.182 823.185L809.038 771.034L887.276 739.833L953.42 791.983L875.182 823.185ZM942.111 875.954L875.967 823.804L954.205 792.603L1020.35 844.753L942.111 875.954ZM1009.04 928.724L942.897 876.574L1021.13 845.372L1087.28 897.523L1009.04 928.724ZM1075.97 981.494L1009.83 929.343L1088.06 898.142L1154.21 950.293L1075.97 981.494ZM1142.9 1034.26L1076.76 982.113L1154.99 950.912L1221.14 1003.06L1142.9 1034.26ZM1222.07 1002.69L1300.3 971.491L1234.16 919.34L1155.92 950.541L1222.07 1002.69ZM1155.14 949.922L1233.38 918.721L1167.23 866.57L1088.99 897.772L1155.14 949.922ZM1088.21 897.152L1166.45 865.951L1100.3 813.801L1022.06 845.002L1088.21 897.152ZM1021.28 844.383L1099.52 813.182L1033.37 761.031L955.134 792.232L1021.28 844.383ZM954.349 791.613L1032.59 760.412L966.443 708.261L888.205 739.462L954.349 791.613ZM887.42 738.843L965.658 707.642L899.514 655.491L821.276 686.693L887.42 738.843ZM820.49 686.074L898.729 654.872L832.585 602.722L754.347 633.923L820.49 686.074ZM753.561 633.304L831.799 602.103L765.655 549.952L687.417 581.153L753.561 633.304ZM686.632 580.534L764.87 549.333L698.726 497.182L620.488 528.383L686.632 580.534ZM619.703 527.764L697.941 496.563L631.797 444.412L553.559 475.614L619.703 527.764ZM552.773 474.995L631.012 443.793L564.868 391.643L486.629 422.844L552.773 474.995ZM485.844 422.225L564.082 391.024L497.938 338.873L419.7 370.074L485.844 422.225ZM418.915 369.455L497.153 338.254L431.009 286.103L352.771 317.304L418.915 369.455ZM351.985 316.685L430.224 285.484L364.08 233.334L285.841 264.535L351.985 316.685ZM285.056 263.916L363.294 232.714L297.15 180.564L218.912 211.765L285.056 263.916ZM218.127 211.146L296.365 179.945L230.221 127.794L151.983 158.995L218.127 211.146ZM151.198 158.376L229.436 127.175L163.292 75.0243L85.0536 106.226L151.198 158.376ZM230.365 126.804L164.221 74.6539L242.459 43.4527L308.603 95.6033L230.365 126.804ZM297.294 179.574L231.15 127.424L309.388 96.2224L375.532 148.373L297.294 179.574ZM364.223 232.344L298.079 180.193L376.317 148.992L442.461 201.143L364.223 232.344ZM431.152 285.114L365.009 232.963L443.247 201.762L509.391 253.912L431.152 285.114ZM498.082 337.883L431.938 285.733L510.176 254.532L576.32 306.682L498.082 337.883ZM565.011 390.653L498.867 338.503L577.105 307.301L643.249 359.452L565.011 390.653ZM631.94 443.423L565.796 391.272L644.034 360.071L710.178 412.222L631.94 443.423ZM698.87 496.193L632.726 444.042L710.964 412.841L777.108 464.991L698.87 496.193ZM765.799 548.962L699.655 496.812L777.893 465.611L844.037 517.761L765.799 548.962ZM832.728 601.732L766.584 549.582L844.822 518.38L910.966 570.531L832.728 601.732ZM899.658 654.502L833.514 602.351L911.752 571.15L977.896 623.301L899.658 654.502ZM966.587 707.272L900.443 655.121L978.681 623.92L1044.82 676.07L966.587 707.272ZM1033.52 760.041L967.372 707.891L1045.61 676.69L1111.75 728.84L1033.52 760.041ZM1100.45 812.811L1034.3 760.66L1112.54 729.459L1178.68 781.61L1100.45 812.811ZM1167.37 865.581L1101.23 813.43L1179.47 782.229L1245.61 834.38L1167.37 865.581ZM1234.3 918.351L1168.16 866.2L1246.4 834.999L1312.54 887.149L1234.3 918.351ZM1301.23 971.12L1235.09 918.97L1313.33 887.768L1379.47 939.919L1301.23 971.12ZM1380.4 939.549L1458.64 908.348L1392.49 856.197L1314.26 887.398L1380.4 939.549ZM1313.47 886.779L1391.71 855.578L1325.56 803.427L1247.33 834.628L1313.47 886.779ZM1246.54 834.009L1324.78 802.808L1258.64 750.657L1180.4 781.859L1246.54 834.009ZM1179.61 781.239L1257.85 750.038L1191.71 697.888L1113.47 729.089L1179.61 781.239ZM1112.68 728.47L1190.92 697.269L1124.78 645.118L1046.54 676.319L1112.68 728.47ZM1045.75 675.7L1123.99 644.499L1057.85 592.348L979.61 623.549L1045.75 675.7ZM978.824 622.93L1057.06 591.729L990.918 539.578L912.681 570.78L978.824 622.93ZM911.895 570.161L990.133 538.959L923.989 486.809L845.751 518.01L911.895 570.161ZM844.966 517.391L923.204 486.19L857.06 434.039L778.822 465.24L844.966 517.391ZM778.037 464.621L856.275 433.42L790.131 381.269L711.893 412.47L778.037 464.621ZM711.107 411.851L789.345 380.65L723.201 328.499L644.963 359.701L711.107 411.851ZM644.178 359.081L722.416 327.88L656.272 275.73L578.034 306.931L644.178 359.081ZM577.249 306.312L655.487 275.111L589.343 222.96L511.105 254.161L577.249 306.312ZM510.319 253.542L588.557 222.341L522.413 170.19L444.175 201.391L510.319 253.542ZM443.39 200.772L521.628 169.571L455.484 117.421L377.246 148.622L443.39 200.772ZM376.461 148.003L454.699 116.801L388.555 64.6508L310.317 95.852L376.461 148.003ZM309.532 95.2329L387.77 64.0317L321.625 11.8811L243.388 43.0822L309.532 95.2329ZM388.698 63.6613L322.554 11.5107L400.793 -19.6906L466.937 32.46L388.698 63.6613ZM455.628 116.431L389.484 64.2804L467.722 33.0791L533.866 85.2297L455.628 116.431ZM522.557 169.201L456.413 117.05L534.651 85.8489L600.795 137.999L522.557 169.201ZM589.486 221.97L523.342 169.82L601.581 138.619L667.724 190.769L589.486 221.97ZM656.416 274.74L590.271 222.59L668.51 191.388L734.654 243.539L656.416 274.74ZM723.345 327.51L657.201 275.359L735.439 244.158L801.583 296.309L723.345 327.51ZM790.274 380.28L724.13 328.129L802.368 296.928L868.512 349.078L790.274 380.28ZM857.203 433.049L791.059 380.899L869.298 349.698L935.442 401.848L857.203 433.049ZM924.133 485.819L857.989 433.669L936.227 402.467L1002.37 454.618L924.133 485.819ZM991.062 538.589L924.918 486.438L1003.16 455.237L1069.3 507.388L991.062 538.589ZM1057.99 591.359L991.847 539.208L1070.09 508.007L1136.23 560.157L1057.99 591.359ZM1124.92 644.128L1058.78 591.978L1137.01 560.776L1203.16 612.927L1124.92 644.128ZM1191.85 696.898L1125.71 644.747L1203.94 613.546L1270.09 665.697L1191.85 696.898ZM1258.78 749.668L1192.64 697.517L1270.87 666.316L1337.02 718.467L1258.78 749.668ZM1325.71 802.438L1259.56 750.287L1337.8 719.086L1403.95 771.236L1325.71 802.438ZM1392.64 855.207L1326.49 803.057L1404.73 771.855L1470.88 824.006L1392.64 855.207ZM1459.57 907.977L1393.42 855.826L1471.66 824.625L1537.81 876.776L1459.57 907.977ZM1538.73 876.405L1616.97 845.204L1550.83 793.054L1472.59 824.255L1538.73 876.405ZM1471.8 823.636L1550.04 792.434L1483.9 740.284L1405.66 771.485L1471.8 823.636ZM1404.88 770.866L1483.11 739.665L1416.97 687.514L1338.73 718.715L1404.88 770.866ZM1337.95 718.096L1416.18 686.895L1350.04 634.744L1271.8 665.946L1337.95 718.096ZM1271.02 665.326L1349.26 634.125L1283.11 581.975L1204.87 613.176L1271.02 665.326ZM1204.09 612.557L1282.33 581.355L1216.18 529.205L1137.94 560.406L1204.09 612.557ZM1137.16 559.787L1215.4 528.586L1149.25 476.435L1071.01 507.636L1137.16 559.787ZM1070.23 507.017L1148.47 475.816L1082.32 423.665L1004.09 454.867L1070.23 507.017ZM1003.3 454.247L1081.54 423.046L1015.39 370.896L937.156 402.097L1003.3 454.247ZM936.371 401.478L1014.61 370.277L948.465 318.126L870.227 349.327L936.371 401.478ZM869.441 348.708L947.679 317.507L881.535 265.356L803.297 296.557L869.441 348.708ZM802.512 295.938L880.75 264.737L814.606 212.586L736.368 243.788L802.512 295.938ZM735.583 243.169L813.821 211.967L747.677 159.817L669.439 191.018L735.583 243.169ZM668.653 190.399L746.891 159.198L680.747 107.047L602.509 138.248L668.653 190.399ZM601.724 137.629L679.962 106.428L613.818 54.2772L535.58 85.4784L601.724 137.629ZM534.795 84.8593L613.033 53.6581L546.889 1.5075L468.651 32.7087L534.795 84.8593ZM467.866 32.0896L546.104 0.888351L479.96 -51.2623L401.721 -20.061L467.866 32.0896ZM547.032 0.517923L480.888 -51.6327L559.127 -82.8339L625.271 -30.6833L547.032 0.517923ZM613.962 53.2876L547.818 1.13707L626.056 -30.0642L692.2 22.0864L613.962 53.2876ZM680.891 106.057L614.747 53.9068L692.985 22.7055L759.129 74.8561L680.891 106.057ZM747.82 158.827L681.676 106.677L759.915 75.4753L826.058 127.626L747.82 158.827ZM814.75 211.597L748.606 159.446L826.844 128.245L892.988 180.396L814.75 211.597ZM881.679 264.367L815.535 212.216L893.773 181.015L959.917 233.165L881.679 264.367ZM948.608 317.136L882.464 264.986L960.702 233.784L1026.85 285.935L948.608 317.136ZM1015.54 369.906L949.394 317.755L1027.63 286.554L1093.78 338.705L1015.54 369.906ZM1082.47 422.676L1016.32 370.525L1094.56 339.324L1160.7 391.475L1082.47 422.676ZM1149.4 475.446L1083.25 423.295L1161.49 392.094L1227.63 444.244L1149.4 475.446ZM1216.33 528.215L1150.18 476.065L1228.42 444.863L1294.56 497.014L1216.33 528.215ZM1283.25 580.985L1217.11 528.834L1295.35 497.633L1361.49 549.784L1283.25 580.985ZM1350.18 633.755L1284.04 581.604L1362.28 550.403L1428.42 602.553L1350.18 633.755ZM1417.11 686.525L1350.97 634.374L1429.21 603.173L1495.35 655.323L1417.11 686.525ZM1484.04 739.294L1417.9 687.144L1496.14 655.942L1562.28 708.093L1484.04 739.294ZM1550.97 792.064L1484.83 739.913L1563.07 708.712L1629.21 760.863L1550.97 792.064ZM1617.9 844.834L1551.76 792.683L1630 761.482L1696.14 813.632L1617.9 844.834ZM1697.07 813.262L1775.31 782.061L1709.16 729.91L1630.92 761.111L1697.07 813.262ZM1630.14 760.492L1708.38 729.291L1642.23 677.141L1563.99 708.342L1630.14 760.492ZM1563.21 707.722L1641.45 676.521L1575.3 624.371L1497.07 655.572L1563.21 707.722ZM1496.28 654.953L1574.52 623.752L1508.37 571.601L1430.14 602.802L1496.28 654.953ZM1429.35 602.183L1507.59 570.982L1441.44 518.831L1363.21 550.032L1429.35 602.183ZM1362.42 549.413L1440.66 518.212L1374.52 466.062L1296.28 497.263L1362.42 549.413ZM1295.49 496.644L1373.73 465.442L1307.59 413.292L1229.35 444.493L1295.49 496.644ZM1228.56 443.874L1306.8 412.673L1240.66 360.522L1162.42 391.723L1228.56 443.874ZM1161.63 391.104L1239.87 359.903L1173.73 307.752L1095.49 338.954L1161.63 391.104ZM1094.7 338.334L1172.94 307.133L1106.8 254.983L1028.56 286.184L1094.7 338.334ZM1027.78 285.565L1106.01 254.364L1039.87 202.213L961.631 233.414L1027.78 285.565ZM960.846 232.795L1039.08 201.594L972.94 149.443L894.702 180.644L960.846 232.795ZM893.917 180.025L972.154 148.824L906.01 96.6735L827.773 127.875L893.917 180.025ZM826.987 127.255L905.225 96.0543L839.081 43.9037L760.843 75.1048L826.987 127.255ZM760.058 74.4857L838.296 43.2846L772.152 -8.86602L693.914 22.3351L760.058 74.4857ZM693.129 21.716L771.367 -9.48516L705.223 -61.6357L626.985 -30.4346L693.129 21.716ZM626.2 -31.0538L704.437 -62.2549L638.293 -114.405L560.055 -83.2044L626.2 -31.0538ZM705.366 -62.6253L639.222 -114.776L717.46 -145.977L783.604 -93.8265L705.366 -62.6253ZM772.296 -9.85559L706.152 -62.0062L784.39 -93.2074L850.534 -41.0568L772.296 -9.85559ZM839.225 42.9142L773.081 -9.23645L851.319 -40.4377L917.463 11.7129L839.225 42.9142ZM906.154 95.6839L840.01 43.5333L918.248 12.3321L984.392 64.4826L906.154 95.6839ZM973.083 148.454L906.939 96.303L985.177 65.1018L1051.32 117.252L973.083 148.454ZM1040.01 201.223L973.869 149.073L1052.11 117.872L1118.25 170.022L1040.01 201.223ZM1106.94 253.993L1040.8 201.842L1119.04 170.641L1185.18 222.792L1106.94 253.993ZM1173.87 306.763L1107.73 254.612L1185.97 223.411L1252.11 275.562L1173.87 306.763ZM1240.8 359.533L1174.66 307.382L1252.89 276.181L1319.04 328.331L1240.8 359.533ZM1307.73 412.302L1241.59 360.152L1319.82 328.95L1385.97 381.101L1307.73 412.302ZM1374.66 465.072L1308.52 412.921L1386.75 381.72L1452.9 433.871L1374.66 465.072ZM1441.59 517.842L1375.44 465.691L1453.68 434.49L1519.83 486.641L1441.59 517.842ZM1508.52 570.612L1442.37 518.461L1520.61 487.26L1586.76 539.41L1508.52 570.612ZM1575.45 623.381L1509.3 571.231L1587.54 540.029L1653.69 592.18L1575.45 623.381ZM1642.38 676.151L1576.23 624L1654.47 592.799L1720.61 644.95L1642.38 676.151ZM1709.31 728.921L1643.16 676.77L1721.4 645.569L1787.54 697.719L1709.31 728.921ZM1776.23 781.691L1710.09 729.54L1788.33 698.339L1854.47 750.489L1776.23 781.691ZM1855.4 750.119L1933.64 718.918L1867.5 666.767L1789.26 697.968L1855.4 750.119ZM1788.47 697.349L1866.71 666.148L1800.57 613.997L1722.33 645.198L1788.47 697.349ZM1721.54 644.579L1799.78 613.378L1733.64 561.228L1655.4 592.429L1721.54 644.579ZM1654.61 591.81L1732.85 560.608L1666.71 508.458L1588.47 539.659L1654.61 591.81ZM1587.68 539.04L1665.92 507.839L1599.78 455.688L1521.54 486.889L1587.68 539.04ZM1520.76 486.27L1598.99 455.069L1532.85 402.918L1454.61 434.12L1520.76 486.27ZM1453.83 433.5L1532.06 402.299L1465.92 350.149L1387.68 381.35L1453.83 433.5ZM1386.9 380.731L1465.14 349.529L1398.99 297.379L1320.75 328.58L1386.9 380.731ZM1319.97 327.961L1398.21 296.76L1332.06 244.609L1253.82 275.81L1319.97 327.961ZM1253.04 275.191L1331.28 243.99L1265.13 191.839L1186.89 223.041L1253.04 275.191ZM1186.11 222.421L1264.35 191.22L1198.2 139.07L1119.96 170.271L1186.11 222.421ZM1119.18 169.652L1197.42 138.45L1131.27 86.2999L1053.04 117.501L1119.18 169.652ZM1052.25 116.882L1130.49 85.6807L1064.34 33.5301L986.106 64.7313L1052.25 116.882ZM985.321 64.1122L1063.56 32.911L997.415 -19.2396L919.177 11.9617L985.321 64.1122ZM918.392 11.3425L996.63 -19.8587L930.486 -72.0093L852.248 -40.8081L918.392 11.3425ZM851.463 -41.4273L929.701 -72.6285L863.557 -124.779L785.319 -93.5778L851.463 -41.4273ZM784.533 -94.197L862.771 -125.398L796.627 -177.549L718.389 -146.348L784.533 -94.197ZM863.7 -125.769L797.556 -177.919L875.794 -209.12L941.938 -156.97L863.7 -125.769ZM930.63 -72.9989L864.486 -125.149L942.723 -156.351L1008.87 -104.2L930.63 -72.9989ZM997.559 -20.2292L931.415 -72.3798L1009.65 -103.581L1075.8 -51.4303L997.559 -20.2292ZM1064.49 32.5405L998.344 -19.61L1076.58 -50.8112L1142.73 1.33939L1064.49 32.5405ZM1131.42 85.3103L1065.27 33.1597L1143.51 1.95853L1209.66 54.1091L1131.42 85.3103ZM1198.35 138.08L1132.2 85.9294L1210.44 54.7283L1276.58 106.879L1198.35 138.08ZM1265.28 190.85L1199.13 138.699L1277.37 107.498L1343.51 159.649L1265.28 190.85ZM1332.21 243.62L1266.06 191.469L1344.3 160.268L1410.44 212.418L1332.21 243.62ZM1399.13 296.389L1332.99 244.239L1411.23 213.038L1477.37 265.188L1399.13 296.389ZM1466.06 349.159L1399.92 297.008L1478.16 265.807L1544.3 317.958L1466.06 349.159ZM1532.99 401.929L1466.85 349.778L1545.09 318.577L1611.23 370.728L1532.99 401.929ZM1599.92 454.698L1533.78 402.548L1612.02 371.347L1678.16 423.497L1599.92 454.698ZM1666.85 507.468L1600.71 455.318L1678.95 424.116L1745.09 476.267L1666.85 507.468ZM1733.78 560.238L1667.64 508.087L1745.87 476.886L1812.02 529.037L1733.78 560.238ZM1800.71 613.008L1734.57 560.857L1812.8 529.656L1878.95 581.806L1800.71 613.008ZM1867.64 665.777L1801.5 613.627L1879.73 582.426L1945.88 634.576L1867.64 665.777ZM1934.57 718.547L1868.42 666.397L1946.66 635.195L2012.81 687.346L1934.57 718.547ZM2013.74 686.976L2091.97 655.774L2025.83 603.624L1947.59 634.825L2013.74 686.976ZM1946.81 634.206L2025.04 603.005L1958.9 550.854L1880.66 582.055L1946.81 634.206ZM1879.88 581.436L1958.12 550.235L1891.97 498.084L1813.73 529.286L1879.88 581.436ZM1812.95 528.666L1891.19 497.465L1825.04 445.314L1746.8 476.516L1812.95 528.666ZM1746.02 475.897L1824.26 444.695L1758.11 392.545L1679.87 423.746L1746.02 475.897ZM1679.09 423.127L1757.33 391.926L1691.18 339.775L1612.95 370.976L1679.09 423.127ZM1612.16 370.357L1690.4 339.156L1624.25 287.005L1546.02 318.207L1612.16 370.357ZM1545.23 317.587L1623.47 286.386L1557.32 234.236L1479.09 265.437L1545.23 317.587ZM1478.3 264.818L1556.54 233.616L1490.4 181.466L1412.16 212.667L1478.3 264.818ZM1411.37 212.048L1489.61 180.847L1423.47 128.696L1345.23 159.897L1411.37 212.048ZM1344.44 159.278L1422.68 128.077L1356.54 75.9263L1278.3 107.128L1344.44 159.278ZM1277.51 106.508L1355.75 75.3072L1289.61 23.1566L1211.37 54.3579L1277.51 106.508ZM1210.58 53.7387L1288.82 22.5375L1222.68 -29.6131L1144.44 1.58811L1210.58 53.7387ZM1143.65 0.968962L1221.89 -30.2323L1155.75 -82.3828L1077.51 -51.1816L1143.65 0.968962ZM1076.73 -51.8007L1154.96 -83.002L1088.82 -135.153L1010.58 -103.951L1076.73 -51.8007ZM1009.8 -104.57L1088.03 -135.772L1021.89 -187.922L943.652 -156.721L1009.8 -104.57ZM942.867 -157.34L1021.11 -188.541L954.961 -240.692L876.723 -209.491L942.867 -157.34ZM1022.03 -188.912L955.89 -241.062L1034.13 -272.264L1100.27 -220.113L1022.03 -188.912ZM1088.96 -136.142L1022.82 -188.293L1101.06 -219.494L1167.2 -167.343L1088.96 -136.142ZM1155.89 -83.3724L1089.75 -135.523L1167.99 -166.724L1234.13 -114.574L1155.89 -83.3724ZM1222.82 -30.6027L1156.68 -82.7533L1234.92 -113.954L1301.06 -61.8039L1222.82 -30.6027ZM1289.75 22.167L1223.61 -29.9836L1301.85 -61.1848L1367.99 -9.03414L1289.75 22.167ZM1356.68 74.9368L1290.54 22.7862L1368.77 -8.415L1434.92 43.7356L1356.68 74.9368ZM1423.61 127.707L1357.47 75.5559L1435.7 44.3547L1501.85 96.5054L1423.61 127.707ZM1490.54 180.476L1424.4 128.326L1502.63 97.1245L1568.78 149.275L1490.54 180.476ZM1557.47 233.246L1491.32 181.095L1569.56 149.894L1635.71 202.045L1557.47 233.246ZM1624.4 286.016L1558.25 233.865L1636.49 202.664L1702.64 254.815L1624.4 286.016ZM1691.33 338.785L1625.18 286.635L1703.42 255.434L1769.57 307.584L1691.33 338.785ZM1758.26 391.555L1692.11 339.405L1770.35 308.203L1836.49 360.354L1758.26 391.555ZM1825.19 444.325L1759.04 392.174L1837.28 360.973L1903.42 413.124L1825.19 444.325ZM1892.11 497.095L1825.97 444.944L1904.21 413.743L1970.35 465.894L1892.11 497.095ZM1959.04 549.864L1892.9 497.714L1971.14 466.513L2037.28 518.663L1959.04 549.864ZM2025.97 602.634L1959.83 550.483L2038.07 519.282L2104.21 571.433L2025.97 602.634ZM2092.9 655.404L2026.76 603.253L2105 572.052L2171.14 624.203L2092.9 655.404ZM2172.07 623.832L2250.31 592.631L2184.16 540.48L2105.93 571.682L2172.07 623.832ZM2105.14 571.063L2183.38 539.861L2117.23 487.711L2039 518.912L2105.14 571.063ZM2038.21 518.293L2116.45 487.092L2050.31 434.941L1972.07 466.142L2038.21 518.293ZM1971.28 465.523L2049.52 434.322L1983.38 382.171L1905.14 413.372L1971.28 465.523ZM1904.35 412.753L1982.59 381.552L1916.45 329.401L1838.21 360.603L1904.35 412.753ZM1837.42 359.984L1915.66 328.782L1849.52 276.632L1771.28 307.833L1837.42 359.984ZM1770.49 307.214L1848.73 276.013L1782.59 223.862L1704.35 255.063L1770.49 307.214ZM1703.56 254.444L1781.8 223.243L1715.66 171.092L1637.42 202.294L1703.56 254.444ZM1636.64 201.674L1714.87 170.473L1648.73 118.323L1570.49 149.524L1636.64 201.674ZM1569.71 148.905L1647.94 117.703L1581.8 65.5528L1503.56 96.7541L1569.71 148.905ZM1502.78 96.1349L1581.01 64.9337L1514.87 12.7831L1436.63 43.9843L1502.78 96.1349ZM1435.85 43.3651L1514.09 12.1639L1447.94 -39.9867L1369.7 -8.78543L1435.85 43.3651ZM1368.92 -9.40457L1447.16 -40.6058L1381.01 -92.7564L1302.77 -61.5552L1368.92 -9.40457ZM1301.99 -62.1743L1380.23 -93.3756L1314.08 -145.526L1235.84 -114.325L1301.99 -62.1743ZM1235.06 -114.944L1313.3 -146.145L1247.15 -198.296L1168.92 -167.095L1235.06 -114.944ZM1168.13 -167.714L1246.37 -198.915L1180.22 -251.066L1101.99 -219.864L1168.13 -167.714ZM1101.2 -220.483L1179.44 -251.685L1113.3 -303.835L1035.06 -272.634L1101.2 -220.483ZM1180.37 -252.055L1114.22 -304.206L1192.46 -335.407L1258.61 -283.256L1180.37 -252.055ZM1247.3 -199.285L1181.15 -251.436L1259.39 -282.637L1325.54 -230.487L1247.3 -199.285ZM1314.23 -146.516L1248.08 -198.666L1326.32 -229.868L1392.46 -177.717L1314.23 -146.516ZM1381.16 -93.746L1315.01 -145.897L1393.25 -177.098L1459.39 -124.947L1381.16 -93.746ZM1448.09 -40.9762L1381.94 -93.1268L1460.18 -124.328L1526.32 -72.1775L1448.09 -40.9762ZM1515.01 11.7935L1448.87 -40.3571L1527.11 -71.5583L1593.25 -19.4077L1515.01 11.7935ZM1581.94 64.5633L1515.8 12.4126L1594.04 -18.7886L1660.18 33.362L1581.94 64.5633ZM1648.87 117.333L1582.73 65.1824L1660.97 33.9812L1727.11 86.1318L1648.87 117.333ZM1715.8 170.103L1649.66 117.952L1727.9 86.7509L1794.04 138.901L1715.8 170.103ZM1782.73 222.872L1716.59 170.722L1794.83 139.521L1860.97 191.671L1782.73 222.872ZM1849.66 275.642L1783.52 223.492L1861.76 192.29L1927.9 244.441L1849.66 275.642ZM1916.59 328.412L1850.45 276.261L1928.68 245.06L1994.83 297.211L1916.59 328.412ZM1983.52 381.182L1917.38 329.031L1995.61 297.83L2061.76 349.98L1983.52 381.182ZM2050.45 433.951L1984.3 381.801L2062.54 350.6L2128.69 402.75L2050.45 433.951ZM2117.38 486.721L2051.23 434.571L2129.47 403.369L2195.62 455.52L2117.38 486.721ZM2184.31 539.491L2118.16 487.34L2196.4 456.139L2262.55 508.29L2184.31 539.491ZM2251.24 592.261L2185.09 540.11L2263.33 508.909L2329.47 561.059L2251.24 592.261ZM1125.21 -388.981L-299.793 179.309L-299.008 179.928L1126 -388.362L1125.21 -388.981Z"
        fill="url(#paint0_radial_61_611)" />
    <defs>
        <radialGradient id="paint0_radial_61_611" cx="0" cy="0" r="1" gradientUnits="userSpaceOnUse"
            gradientTransform="translate(1046.26 400.132) rotate(162.146) scale(757.748 614.99)">
            <stop offset="0.22273" />
            <stop offset="1" stop-color="#211D31" stop-opacity="0" />
        </radialGradient>
    </defs>
</svg>