<svg width="24" height="24" viewBox="0 0 24 24" fill="none" xmlns="http://www.w3.org/2000/svg">
    <circle cx="12" cy="12" r="12" fill="#6680E3" />
    <path
        d="M12.0268 3.0974V3.10627C12.0357 3.1506 12.0357 3.20381 12.0357 3.25701V9.65011C12.0268 9.68558 12.0002 9.69445 11.9736 9.71218C11.7874 9.80085 11.6101 9.88065 11.4239 9.96046C11.1667 10.0757 10.9007 10.1999 10.6436 10.3151L9.71256 10.7408C9.45542 10.856 9.19827 10.9713 8.95 11.0866C8.64852 11.2284 8.33817 11.3614 8.0367 11.5033C7.77955 11.6186 7.52241 11.7427 7.2564 11.858C7.04359 11.9555 6.83079 12.0442 6.62684 12.1417C6.60911 12.1506 6.59138 12.1595 6.57364 12.1595C6.56478 12.1595 6.56478 12.1595 6.55591 12.1506L6.79532 11.7516C7.2564 10.989 7.70862 10.2353 8.1697 9.47277C8.65739 8.65701 9.15394 7.84124 9.64162 7.02548C10.0938 6.27179 10.5549 5.51809 11.0071 4.7644C11.3352 4.21464 11.6722 3.66489 12.0002 3.11514C12.0091 3.0974 12.018 3.08853 12.018 3.0708H12.0268C12.018 3.07967 12.0268 3.08853 12.0268 3.0974Z"
        fill="white" />
    <path
        d="M17.4711 12.1508L17.48 12.1596L16.1765 12.9311L12.08 15.3518C12.0622 15.3606 12.0445 15.3695 12.0356 15.3784C12.009 15.3784 12.009 15.3518 12.009 15.3429V15.2631V9.78328C12.009 9.75668 12.009 9.72121 12.0179 9.69461C12.0268 9.65914 12.0534 9.66801 12.08 9.67688C12.1952 9.73008 12.3194 9.78328 12.4346 9.83648C12.7805 9.99609 13.1263 10.1557 13.4721 10.3064C13.7736 10.4394 14.0662 10.5813 14.3677 10.7143C14.6691 10.8473 14.9706 10.9892 15.2721 11.1222C15.5292 11.2375 15.7952 11.3616 16.0524 11.4769C16.3095 11.5921 16.5755 11.7163 16.8327 11.8316C17.0366 11.9202 17.2406 12.0178 17.4445 12.1064C17.4445 12.133 17.4534 12.1419 17.4711 12.1508Z"
        fill="#8499E8" />
    <path
        d="M12.0266 20.8848C12.0266 20.8937 12.0177 20.9025 12.0177 20.9114H12.0089C12.0089 20.8937 11.9911 20.8848 11.9823 20.8671C11.4325 20.0956 10.8828 19.3153 10.333 18.5439C9.77438 17.7547 9.2069 16.9567 8.64828 16.1676C8.10739 15.405 7.55763 14.6336 7.01675 13.871C6.87488 13.6671 6.733 13.472 6.59113 13.268C6.58227 13.2503 6.5734 13.2414 6.55566 13.2148C6.58227 13.2148 6.6 13.2326 6.60887 13.2414C7.38029 13.6937 8.14286 14.1459 8.91428 14.5981C9.80098 15.1212 10.6788 15.6444 11.5655 16.1676L12.0177 16.4336C12.0355 16.4513 12.0355 16.469 12.0355 16.4868V20.7607C12.0355 20.805 12.0355 20.8493 12.0266 20.8848Z"
        fill="white" />
    <path
        d="M6.54688 12.1689V12.1601C6.83062 12.0359 7.1055 11.9029 7.38924 11.7788C7.75279 11.6103 8.11633 11.4507 8.47988 11.2823C8.75476 11.1581 9.0385 11.0251 9.31338 10.901C9.72126 10.7148 10.1203 10.5374 10.5282 10.3512C10.803 10.2271 11.0779 10.1029 11.3617 9.96993C11.5567 9.88126 11.7607 9.79259 11.9557 9.70393C11.9735 9.69506 12.0001 9.68619 12.0089 9.66846C12.0178 9.66846 12.0178 9.67732 12.0089 9.68619V15.3167C12.0089 15.3433 12.0001 15.3699 12.0178 15.3877C12.0001 15.4143 11.9823 15.3877 11.9735 15.3788C11.8937 15.3345 11.8139 15.2901 11.7341 15.2369C10.0227 14.2261 8.30254 13.2064 6.59121 12.1956C6.58234 12.1867 6.56461 12.1778 6.54688 12.1689Z"
        fill="#C3CCF3" />
    <path
        d="M17.4533 13.2148H17.4622C17.4622 13.2326 17.4444 13.2503 17.4356 13.268C15.804 15.5646 14.1725 17.87 12.541 20.1666C12.3725 20.406 12.1952 20.6454 12.0267 20.8848C12.0178 20.8759 12.0178 20.8671 12.0178 20.8582V20.805V16.5045V16.4247C12.3902 16.203 12.7538 15.9902 13.1262 15.7685C14.5627 14.9173 15.9991 14.0749 17.4267 13.2237C17.4356 13.2326 17.4444 13.2237 17.4533 13.2148Z"
        fill="#C3CCF3" />
    <path
        d="M12.018 9.68576V9.66802V9.61482V3.17738C12.018 3.15078 12.0091 3.13305 12.0268 3.10645C13.8268 6.09462 15.6268 9.07393 17.418 12.0621C17.4357 12.0887 17.4623 12.1242 17.4712 12.1596C17.347 12.1153 17.2318 12.0532 17.1165 12C16.9746 11.938 16.8239 11.867 16.682 11.805C16.5933 11.7606 16.4958 11.7252 16.4071 11.6808C16.2564 11.6099 16.1057 11.5478 15.9549 11.4769C15.8663 11.4414 15.7776 11.3971 15.6889 11.3528L15.1037 11.0867C15.0062 11.0424 14.9086 10.9981 14.8022 10.9537L14.3766 10.7675C14.2879 10.7321 14.1993 10.6877 14.1106 10.6434L13.5254 10.3774C13.4278 10.333 13.3303 10.2887 13.2239 10.2444L12.7983 10.0582C12.7007 10.0138 12.6121 9.9695 12.5145 9.92517C12.3461 9.84536 12.1776 9.76556 12.0002 9.69462C12.0268 9.68576 12.018 9.68576 12.018 9.68576Z"
        fill="#C3CCF3" />
</svg>