<svg width="200" height="200" viewBox="0 0 200 200" fill="none" xmlns="http://www.w3.org/2000/svg">
<path d="M100 198.595C154.453 198.595 198.595 154.453 198.595 100C198.595 45.5474 154.453 1.40479 100 1.40479C45.5473 1.40479 1.40479 45.5474 1.40479 100C1.40479 154.453 45.5473 198.595 100 198.595Z" fill="#0C0C4F"/>
<path d="M100 200C44.864 200 0 155.136 0 100C0 44.864 44.864 0 100 0C155.136 0 200 44.864 200 100C200 155.136 155.136 200 100 200ZM100 2.79964C46.4083 2.79964 2.79964 46.3983 2.79964 100C2.79964 153.602 46.3983 197.2 100 197.2C153.602 197.2 197.2 153.602 197.2 100C197.2 46.3983 153.602 2.79964 100 2.79964Z" fill="#EC796B"/>
<path d="M98.7754 96.2688L98.7057 83.1772V82.7787L108.559 100.533L121.671 94.6946L123.753 93.768C123.753 93.768 123.753 93.768 123.763 93.768L121.671 94.6946C122.338 94.3459 123.036 94.0271 123.763 93.768C125.257 93.2101 126.862 92.8415 128.535 92.692C137.333 91.9149 144.626 97.5241 145.174 105.216C145.443 108.972 143.072 112.409 143.072 112.409C140.202 108.155 134.702 105.574 128.535 106.122C126.862 106.272 125.257 106.64 123.763 107.198C123.763 107.198 123.76 107.198 123.753 107.198C123.036 107.467 122.338 107.776 121.671 108.125L108.569 113.963L98.7854 96.2688H98.7754Z" fill="#EC796B"/>
<path d="M108.43 114.332L98.4865 96.3385L98.4167 83.1772L98.4466 81.7027L108.679 100.154L121.541 94.4256C122.219 94.0669 122.906 93.7581 123.594 93.509L123.633 93.4692H123.703C125.238 92.8913 126.861 92.5326 128.505 92.3832C133.088 91.9747 137.562 93.3097 140.77 96.0496C143.54 98.4109 145.204 101.659 145.453 105.176C145.722 108.982 143.4 112.409 143.301 112.549L143.201 112.688L142.902 112.658L142.822 112.549C139.903 108.225 134.433 105.863 128.545 106.381C126.951 106.521 125.387 106.87 123.902 107.427L123.843 107.447L108.42 114.312L108.43 114.332ZM99.0544 96.1891L108.669 113.585L121.521 107.856C122.159 107.517 122.846 107.208 123.564 106.949L123.604 106.909H123.683C125.228 106.332 126.842 105.973 128.485 105.823C134.414 105.295 139.943 107.617 143.042 111.881C143.61 110.925 145.084 108.145 144.875 105.226C144.636 101.858 143.042 98.7596 140.391 96.4979C137.293 93.8577 132.979 92.5725 128.555 92.971C126.951 93.1105 125.367 93.4692 123.873 94.0271L121.78 94.9537L108.43 100.902L98.9946 83.8846L99.0544 96.199V96.1891Z" fill="#0C0C4F"/>
<path d="M167.82 103.472C167.82 103.472 168.916 114.511 168.936 116.384C169.404 127.533 163.217 140.535 153.224 146.383C149.199 148.735 136.197 153.975 136.197 153.975H136.187L110.861 164.945L98.7156 154.892V140.545L110.861 150.598L136.187 139.628H136.197C136.197 139.628 149.199 134.398 153.224 132.036C163.217 126.188 168.298 114.701 167.82 103.552" fill="#0C0C4F"/>
<path d="M110.801 165.283L110.661 165.174L98.4067 155.041V139.947L110.891 150.269L136.127 139.349C137.024 138.991 149.239 134.039 153.065 131.797C162.34 126.367 168.019 115.288 167.521 103.572C167.521 103.572 167.521 103.502 167.521 103.492L168.089 103.432C168.139 103.881 169.185 114.511 169.205 116.374C169.703 128.231 163.038 140.953 153.343 146.622C149.348 148.964 136.406 154.175 136.277 154.224L136.217 154.244L110.781 165.254L110.801 165.283ZM98.9846 154.762L110.891 164.616L136.127 153.696C137.024 153.338 149.239 148.386 153.065 146.144C162.579 140.575 169.135 128.071 168.637 116.404C168.637 115.368 168.278 111.443 167.979 108.205C167.023 118.347 161.573 127.493 153.353 132.305C149.358 134.647 136.416 139.858 136.287 139.907L136.227 139.927L110.791 150.937L110.651 150.827L98.9746 141.163V154.762H98.9846Z" fill="#EC796B"/>
<path d="M98.9946 170.076L89.2507 152.7V138.353L98.9946 155.729V170.076Z" fill="#F2F4F3"/>
<path d="M98.9946 170.365C98.895 170.365 98.7953 170.315 98.7455 170.215L89.0016 152.839C89.0016 152.839 88.9617 152.75 88.9617 152.7V138.353C88.9617 138.224 89.0514 138.104 89.1809 138.074C89.3104 138.034 89.44 138.094 89.4997 138.214L99.2437 155.589C99.2437 155.589 99.2835 155.679 99.2835 155.729V170.076C99.2835 170.205 99.1939 170.325 99.0644 170.355C99.0444 170.355 99.0145 170.355 98.9946 170.355V170.365ZM89.5396 152.63L98.7057 168.98V155.808L89.5396 139.459V152.63Z" fill="#0C0C4F"/>
<path d="M110.851 150.578L98.9847 155.699L89.2507 138.333L101.117 133.202L110.851 150.578Z" fill="#F2F4F3"/>
<path d="M98.8651 156.068L88.8521 138.204L101.236 132.843L111.259 150.727L98.8651 156.077V156.068ZM89.6591 138.473L99.1141 155.33L110.452 150.438L100.997 133.561L89.6691 138.463L89.6591 138.473Z" fill="#0C0C4F"/>
<path d="M98.9847 155.699L110.851 150.578V164.955L98.9847 170.076V155.699Z" fill="#F2F4F3"/>
<path d="M98.7057 170.514V155.51L111.14 150.139V165.134L98.7057 170.514ZM99.2835 155.888V169.637L110.572 164.755V151.006L99.2835 155.878V155.888Z" fill="#0C0C4F"/>
<path d="M136.197 139.638H136.187L110.861 150.608L101.117 133.232L129.621 120.918C129.621 120.918 138.07 117.201 140.501 115.268C143.241 113.087 145.353 109.012 145.164 105.156C144.765 97.4544 137.323 91.8452 128.525 92.6322C126.852 92.7817 125.247 93.1503 123.753 93.7083C123.026 93.9773 122.328 94.2861 121.661 94.6348L123.753 93.7083C123.753 93.7083 123.753 93.7083 123.743 93.7083L121.661 94.6348L108.549 100.473L98.7654 82.7787C106.148 79.5008 114.069 76.1034 118.482 74.579C120.953 73.7222 124.988 73.3137 127.688 73.0746C137.931 72.158 147.425 74.848 154.599 79.9691C162.28 85.4388 167.322 93.6983 167.81 103.303C167.81 103.392 167.82 103.482 167.82 103.572C168.288 114.721 163.217 126.198 153.224 132.056C149.199 134.408 136.197 139.648 136.197 139.648H136.187" fill="#EC796B"/>
<path d="M110.741 150.966L100.718 133.083L129.522 120.649C129.601 120.609 137.96 116.932 140.332 115.039C143.191 112.758 145.064 108.703 144.885 105.166C144.715 101.868 143.191 98.8094 140.591 96.5478C137.462 93.8378 133.078 92.5127 128.565 92.9112C126.961 93.0507 125.387 93.4094 123.892 93.9673H123.873L108.45 100.842L98.3868 82.6392L98.6758 82.5097C108.021 78.3551 114.667 75.5953 118.413 74.3001C120.814 73.4731 124.63 73.0547 127.688 72.7757C137.642 71.889 147.266 74.3499 154.798 79.72C162.918 85.4986 167.651 93.8677 168.129 103.273C168.129 103.382 168.139 103.472 168.139 103.562C168.647 115.478 162.858 126.756 153.393 132.295C149.398 134.637 136.456 139.848 136.326 139.897L136.267 139.917L110.761 150.966H110.741ZM101.535 133.362L110.99 150.239L136.147 139.349C137.044 138.991 149.259 134.039 153.084 131.797C162.36 126.367 168.039 115.288 167.541 103.572C167.541 103.482 167.541 103.412 167.541 103.333C167.073 94.0769 162.42 85.8673 154.449 80.1883C147.037 74.8978 137.542 72.4768 127.728 73.3436C124.699 73.6126 120.923 74.0311 118.592 74.8381C114.896 76.1134 108.37 78.8333 99.1839 82.9082L108.689 100.095L121.551 94.3658C122.229 94.0072 122.916 93.7082 123.594 93.4492L123.633 93.4094H123.713C125.247 92.8315 126.871 92.4728 128.515 92.3234C133.188 91.9049 137.731 93.2898 140.969 96.0994C143.689 98.4607 145.283 101.669 145.463 105.116C145.652 108.822 143.689 113.087 140.69 115.468C138.259 117.401 130.099 121.007 129.751 121.157L101.535 133.342V133.362Z" fill="#0C0C4F"/>
<path d="M108.629 113.933L98.7156 96.2688V82.7787L108.629 100.473V113.933Z" fill="#F2F4F3"/>
<path d="M108.629 114.212C108.529 114.212 108.43 114.163 108.38 114.063L98.4665 96.3983C98.4665 96.3983 98.4267 96.3086 98.4267 96.2588V82.7687C98.4267 82.6392 98.5164 82.5197 98.6459 82.4898C98.7754 82.4499 98.9049 82.5097 98.9647 82.6293L108.878 100.334C108.878 100.334 108.918 100.423 108.918 100.473V113.923C108.918 114.053 108.828 114.173 108.699 114.202C108.679 114.202 108.649 114.202 108.629 114.202V114.212ZM98.9946 96.1891L108.34 112.828V100.553L98.9946 83.8747V96.1891Z" fill="#0C0C4F"/>
<path d="M110.97 150.867L110.741 150.339L136.137 139.349C137.034 138.991 149.249 134.039 153.074 131.797C162.35 126.367 168.029 115.288 167.531 103.572L168.109 103.552C168.617 115.478 162.828 126.756 153.363 132.296C149.368 134.637 136.426 139.848 136.297 139.897L136.237 139.917L110.97 150.857V150.867Z" fill="#F2F4F3"/>
<path d="M63.1572 47.9376H63.1671L88.4934 36.9682L98.2374 54.3439L69.7328 66.6584C69.7328 66.6584 61.2841 70.3746 58.8531 72.3074C56.1132 74.4894 54.0011 78.5643 54.1904 82.4201C54.5889 90.1216 62.0314 95.7308 70.8288 94.9437C72.5026 94.7942 74.1067 94.4256 75.6011 93.8677C76.3284 93.5987 77.0259 93.2898 77.6934 92.9411L75.6011 93.8677C75.6011 93.8677 75.6011 93.8677 75.6111 93.8677L77.6934 92.9411L90.8049 87.1027L100.589 104.797C93.206 108.075 85.2853 111.473 80.8716 112.997C78.4008 113.854 74.3657 114.262 71.6657 114.501C61.4236 115.418 51.9287 112.728 44.7553 107.607C37.0737 102.137 32.0323 93.8776 31.5441 84.2732C31.5441 84.1835 31.5342 84.0939 31.5342 84.0042C31.0659 72.8554 36.1372 61.3779 46.1302 55.5196C50.1553 53.1683 63.1572 47.9277 63.1572 47.9277H63.1671" fill="#EC796B"/>
<path d="M67.7203 114.97C59.2018 114.97 51.1018 112.499 44.5759 107.846C36.456 102.067 31.7235 93.6983 31.2452 84.2931C31.2452 84.1835 31.2353 84.0938 31.2353 84.0042C30.7272 72.0883 36.5157 60.81 45.9807 55.2705C49.9759 52.9291 62.9181 47.7184 63.0476 47.6686L63.1073 47.6487L88.613 36.5995L98.6359 54.4834L69.8325 66.9174C69.7528 66.9572 61.3937 70.6336 59.0225 72.5266C56.163 74.8082 54.29 78.8632 54.4693 82.4001C54.6387 85.6979 56.163 88.7566 58.7634 91.0182C61.8918 93.7282 66.2756 95.0633 70.7889 94.6548C72.393 94.5153 73.9672 94.1566 75.4716 93.5986L77.5639 92.6721L90.9145 86.7241L100.977 104.927L100.688 105.056C91.3329 109.211 84.6875 111.971 80.9513 113.266C78.5602 114.093 74.7343 114.511 71.6757 114.79C70.3506 114.91 69.0254 114.97 67.7103 114.97H67.7203ZM63.207 48.2265C62.3103 48.5852 50.0955 53.5369 46.2697 55.7786C36.994 61.2085 31.315 72.2875 31.8131 84.0042C31.8131 84.0938 31.8131 84.1636 31.8131 84.2433C32.2814 93.499 36.9342 101.709 44.9047 107.388C52.3173 112.678 61.8121 115.099 71.6258 114.232C74.6546 113.963 78.4307 113.545 80.762 112.738C84.4484 111.463 90.9743 108.753 100.17 104.678L90.6654 87.4913L77.803 93.2201C77.1255 93.5787 76.438 93.8876 75.7506 94.1367L75.7107 94.1765H75.641C74.0967 94.7544 72.4827 95.1131 70.8387 95.2625C66.166 95.681 61.6228 94.306 58.3848 91.4865C55.6649 89.1252 54.0708 85.9171 53.8914 82.4698C53.7022 78.7635 55.6649 74.4993 58.6638 72.1181C61.0948 70.1853 69.2546 66.5886 69.6033 66.4292L97.8189 54.2443L88.3639 37.3667L63.207 48.2564V48.2265Z" fill="#0C0C4F"/>
<path d="M100.539 104.797C93.1562 108.075 85.2355 111.472 80.8218 112.997C78.3509 113.854 74.3159 114.262 71.6159 114.501C61.3738 115.418 51.8789 112.728 44.7054 107.607C37.0239 102.137 31.9825 93.8776 31.4943 84.2731C31.4943 84.2731 25.8651 120.19 60.4771 128.25C60.4771 128.25 76.7269 133.71 100.549 119.563V104.777L100.539 104.797Z" fill="#EC796B"/>
<path d="M68.9856 129.585C63.5856 129.585 60.5369 128.579 60.3874 128.529C42.404 124.345 35.4198 112.509 32.7397 103.323C29.8404 93.3894 31.2054 84.3229 31.2154 84.2333L31.6438 81.4934L31.7833 84.2632C32.2515 93.489 36.9043 101.699 44.8748 107.378C52.2874 112.668 61.7823 115.089 71.5959 114.222C74.6247 113.953 78.4008 113.535 80.7321 112.728C84.4584 111.443 91.0838 108.683 100.429 104.538L100.838 104.359V119.742L100.698 119.822C88.344 127.154 78.062 129.137 71.6059 129.506C70.6793 129.556 69.8125 129.585 68.9956 129.585H68.9856ZM31.5142 87.3119C31.3349 90.7591 31.4146 96.7968 33.2877 103.183C35.9279 112.22 42.8025 123.847 60.5369 127.981C60.7262 128.041 76.9163 133.212 100.25 119.413V105.236C91.1038 109.291 84.5978 111.991 80.9115 113.266C78.5203 114.093 74.6945 114.511 71.6358 114.79C61.6826 115.677 52.0582 113.206 44.5261 107.846C37.2929 102.695 32.7397 95.4816 31.5043 87.3119H31.5142Z" fill="#0C0C4F"/>
<path d="M98.2274 54.3439V69.4679L64.4026 84.0938C64.4026 84.0938 58.3151 86.4152 57.259 89.9223C57.259 89.9223 48.4416 79.6801 60.6265 71.1417C63.5955 69.0594 98.2274 54.3538 98.2274 54.3538V54.3439Z" fill="#0C0C4F"/>
<path d="M57.3786 90.5001L57.0398 90.1016C56.8904 89.9222 53.2937 85.6879 53.9712 80.3078C54.4095 76.7809 56.6014 73.6126 60.4671 70.9026C63.4262 68.8303 96.703 54.6826 98.1178 54.0849L98.5163 53.9155V69.6572L98.347 69.7369L64.5221 84.3628C64.4524 84.3927 58.5442 86.6842 57.538 90.0019L57.3885 90.5001H57.3786ZM97.9385 54.7823C94.0728 56.4262 63.5258 69.4579 60.7859 71.3709C57.0597 73.9812 54.9575 77.01 54.5291 80.3776C54.001 84.6019 56.3025 88.1787 57.1594 89.3344C58.614 86.0266 64.0539 83.9145 64.293 83.8248L97.9285 69.2786V54.7823H97.9385Z" fill="#EC796B"/>
<path d="M110.093 49.2229L98.2274 54.3439L88.4934 36.9782L100.35 31.8472L110.093 49.2229Z" fill="#F2F4F3"/>
<path d="M98.1079 54.7125L88.0949 36.8486L100.479 31.4885L110.502 49.3723L98.1079 54.7225V54.7125ZM88.9019 37.1177L98.3569 53.9753L109.695 49.0834L100.24 32.2058L88.9119 37.1077L88.9019 37.1177Z" fill="#0C0C4F"/>
<path d="M98.2274 54.3439L110.094 49.2228V64.3369L98.2274 69.4679V54.3439Z" fill="#F2F4F3"/>
<path d="M97.9385 69.9063V54.1546L110.372 48.7845V64.5262L97.9385 69.9063ZM98.5164 54.5332V69.0296L109.805 64.1476V49.6513L98.5164 54.5233V54.5332Z" fill="#0C0C4F"/>
<path d="M57.0398 90.1116C56.8904 89.9322 53.2937 85.6979 53.9712 80.3178C54.4095 76.7909 56.6014 73.6226 60.4671 70.9126C63.4262 68.8403 96.703 54.6926 98.1178 54.0948L98.347 54.6229C97.9983 54.7723 63.7051 69.3484 60.7959 71.3809C57.0697 73.9912 54.9675 77.02 54.5391 80.3876C53.9014 85.5186 57.4383 89.7031 57.4782 89.7429L57.0398 90.1216V90.1116Z" fill="#F2F4F3"/>
<path d="M131.365 25.0523L121.581 29.725L125.616 31.628L114.677 40.8738L132.152 32.2357L127.748 31.1697L131.365 25.0523Z" fill="#F2F4F3"/>
<path d="M112.704 42.169L125.088 31.6878L120.913 29.715L132.092 24.3748L128.187 30.9804L132.989 32.1461L112.694 42.169H112.704ZM122.258 29.725L126.144 31.5582L116.669 39.5786L131.325 32.3354L127.31 31.359L130.647 25.7099L122.258 29.725Z" fill="#EC796B"/>
<path d="M67.1524 174.958L76.9362 170.285L72.9111 168.382L83.8406 159.136L66.3653 167.764L70.769 168.83L67.1524 174.958Z" fill="#EC796B"/>
<path d="M66.4251 175.625L70.3306 169.02L65.5284 167.854L85.8233 157.831L73.4391 168.312L77.6137 170.285L66.435 175.625H66.4251ZM67.2022 167.675L71.2173 168.651L67.8797 174.3L76.2686 170.285L72.383 168.452L81.858 160.431L67.2022 167.675Z" fill="#F2F4F3"/>
</svg>
