<svg width="500" height="593" viewBox="0 0 500 593" fill="none" xmlns="http://www.w3.org/2000/svg">
    <path
        d="M251.085 265.314L253.369 221.56L253.445 220.228L282.955 281.442L327.885 264.455L335.02 261.76C335.02 261.76 335.02 261.76 335.054 261.761L327.885 264.455C330.182 263.418 332.574 262.487 335.054 261.761C340.154 260.185 345.584 259.261 351.206 259.084C380.749 258.178 404.038 278.321 404.39 304.125C404.567 316.727 395.984 327.755 395.984 327.755C387.215 312.99 369.335 303.311 348.624 303.957C343.003 304.134 337.573 305.058 332.472 306.634C332.472 306.634 332.461 306.634 332.439 306.633C329.99 307.393 327.601 308.291 325.304 309.328L280.407 326.317L251.119 265.316L251.085 265.314Z"
        fill="#3C68FF" />
    <path
        d="M251.085 265.314L253.369 221.56L253.445 220.228L282.955 281.442L327.885 264.455L335.02 261.76C335.02 261.76 335.02 261.76 335.054 261.761L327.885 264.455C330.182 263.418 332.574 262.487 335.054 261.761C340.154 260.185 345.584 259.261 351.206 259.084C380.749 258.178 404.038 278.321 404.39 304.125C404.567 316.727 395.984 327.755 395.984 327.755C387.215 312.99 369.335 303.311 348.624 303.957C343.003 304.134 337.573 305.058 332.472 306.634C332.472 306.634 332.461 306.634 332.439 306.633C329.99 307.393 327.601 308.291 325.304 309.328L280.407 326.317L251.119 265.316L251.085 265.314Z"
        fill="#0E0A1E" />
    <path
        d="M279.87 327.523L250.107 265.492L252.403 221.505L252.786 216.584L283.427 280.201L327.504 263.532C329.836 262.464 332.193 261.564 334.537 260.864L334.678 260.739L334.911 260.752C340.149 259.116 345.644 258.23 351.165 258.047C366.556 257.563 381.246 262.883 391.439 272.654C400.239 281.076 405.174 292.248 405.33 304.047C405.497 316.814 397.082 327.82 396.723 328.266L396.363 328.713L395.37 328.556L395.125 328.174C386.202 313.166 368.381 304.225 348.608 304.825C343.255 304.984 337.961 305.849 332.894 307.428L332.691 307.483L279.841 327.454L279.87 327.523ZM252.033 265.102L280.813 325.072L324.856 308.401C327.051 307.392 329.408 306.492 331.854 305.765L331.995 305.639L332.261 305.655C337.532 304.021 342.994 303.132 348.515 302.949C368.423 302.324 386.452 311.143 395.986 325.986C398.067 322.9 403.528 313.896 403.39 304.102C403.238 292.804 398.507 282.145 390.087 274.079C380.242 264.662 366.075 259.539 351.219 260.02C345.832 260.178 340.47 261.072 335.37 262.649L328.201 265.343L282.451 282.65L254.198 223.979L252.031 265.136L252.033 265.102Z"
        fill="#0E0A1E" />
    <path
        d="M480.39 302.653C480.39 302.653 481.93 339.747 481.637 346.009C481.058 383.349 457.887 425.602 423.375 443.221C409.474 450.304 365.025 465.314 365.025 465.314L364.992 465.312L278.264 497.095L239.618 461.173L242.375 413.237L281.022 449.16L367.75 417.377L367.783 417.379C367.783 417.379 412.23 402.401 426.132 395.286C460.645 377.666 479.83 340.261 480.375 302.919"
        fill="#0E0A1E" />
    <path
        d="M278 498.215L277.555 497.822L238.558 461.612L241.459 411.18L281.185 448.066L367.604 416.433C370.669 415.407 412.432 401.21 425.646 394.455C457.681 378.096 478.785 342.171 479.373 302.928C479.373 302.928 479.386 302.695 479.388 302.661L481.297 302.571C481.377 304.078 482.829 339.798 482.538 346.027C481.923 385.736 457.208 426.964 423.729 444.042C409.93 451.097 365.687 466.02 365.244 466.161L365.041 466.216L277.939 498.111L278 498.215ZM240.542 460.791L278.428 496.002L364.847 464.368C367.911 463.342 409.675 449.146 422.889 442.391C455.75 425.611 480.057 385.094 480.635 346.018C480.834 342.556 480.39 329.371 480.014 318.495C474.868 352.199 454.902 381.71 426.514 396.209C412.715 403.264 368.472 418.186 368.029 418.328L367.826 418.383L280.724 450.278L280.279 449.885L243.123 415.35L240.509 460.789L240.542 460.791Z"
        fill="#0E0A1E" />
    <path d="M237.632 511.958L208.415 452.03L211.173 404.094L240.389 464.023L237.632 511.958Z" fill="#0E0A1E" />
    <path
        d="M237.576 512.923C237.243 512.904 236.92 512.719 236.773 512.376L207.556 452.448C207.556 452.448 207.44 452.141 207.45 451.974L210.207 404.039C210.232 403.606 210.555 403.224 210.993 403.149C211.434 403.041 211.855 403.265 212.032 403.676L241.248 463.604C241.248 463.604 241.364 463.912 241.355 464.078L238.597 512.014C238.572 512.446 238.25 512.829 237.811 512.904C237.745 512.9 237.645 512.894 237.578 512.89L237.576 512.923ZM209.394 451.852L236.877 508.241L239.409 464.233L211.926 407.845L209.394 451.852Z"
        fill="#0E0A1E" />
    <path d="M280.993 449.091L240.362 463.92L211.177 404.028L251.809 389.165L280.993 449.091Z" fill="#EC796B" />
    <path d="M280.993 449.091L240.362 463.92L211.177 404.028L251.809 389.165L280.993 449.091Z" fill="#0E0A1E" />
    <path
        d="M239.891 465.129L209.869 403.518L252.277 387.989L282.328 449.669L239.889 465.162L239.891 465.129ZM212.514 404.572L240.865 462.714L279.687 448.548L251.34 390.34L212.549 404.541L212.514 404.572Z"
        fill="#0E0A1E" />
    <path d="M240.361 463.919L280.992 449.09L278.229 497.125L237.598 511.955L240.361 463.919Z" fill="#252236" />
    <path d="M240.361 463.919L280.992 449.09L278.229 497.125L237.598 511.955L240.361 463.919Z" fill="#0E0A1E" />
    <path
        d="M236.582 513.368L239.466 463.235L282.042 447.682L279.16 497.782L236.582 513.368ZM241.324 464.611L238.681 510.549L277.335 496.407L279.978 450.469L241.326 464.578L241.324 464.611Z"
        fill="#0E0A1E" />
    <path
        d="M367.781 417.413L367.748 417.411L281.02 449.193L251.803 389.265L349.409 353.599C349.409 353.599 378.351 342.807 386.845 336.816C396.419 330.052 404.259 316.843 404.368 303.924C404.517 278.116 380.728 257.944 351.183 258.883C345.562 259.06 340.132 259.984 335.031 261.561C332.55 262.32 330.16 263.217 327.863 264.254L335.031 261.561C335.031 261.561 335.031 261.561 334.998 261.559L327.863 264.254L282.933 281.241L253.644 220.24C278.941 210.707 306.059 200.878 321.098 196.634C329.519 194.246 343.079 193.656 352.146 193.376C386.543 192.283 417.75 203.095 440.733 221.584C465.347 241.336 480.604 269.901 480.389 302.085C480.372 302.385 480.388 302.686 480.371 302.986C479.792 340.326 460.643 377.7 426.128 395.353C412.228 402.435 367.779 417.446 367.779 417.446L367.746 417.444"
        fill="url(#paint0_linear_1_4)" />
    <path
        d="M367.781 417.413L367.748 417.411L281.02 449.193L251.803 389.265L349.409 353.599C349.409 353.599 378.351 342.807 386.845 336.816C396.419 330.052 404.259 316.843 404.368 303.924C404.517 278.116 380.728 257.944 351.183 258.883C345.562 259.06 340.132 259.984 335.031 261.561C332.55 262.32 330.16 263.217 327.863 264.254L335.031 261.561C335.031 261.561 335.031 261.561 334.998 261.559L327.863 264.254L282.933 281.241L253.644 220.24C278.941 210.707 306.059 200.878 321.098 196.634C329.519 194.246 343.079 193.656 352.146 193.376C386.543 192.283 417.75 203.095 440.733 221.584C465.347 241.336 480.604 269.901 480.389 302.085C480.372 302.385 480.388 302.686 480.371 302.986C479.792 340.326 460.643 377.7 426.128 395.353C412.228 402.435 367.779 417.446 367.779 417.446L367.746 417.444"
        fill="#0E0A1E" />
    <path
        d="M280.551 450.368L250.5 388.689L349.127 352.681C349.401 352.563 378.037 341.887 386.324 336.017C396.316 328.944 403.353 315.756 403.434 303.904C403.502 292.853 398.997 282.34 390.743 274.284C380.811 264.628 366.419 259.358 351.263 259.822C345.877 259.98 340.548 260.876 335.448 262.453L335.381 262.449L282.529 282.453L252.406 219.701L253.397 219.324C285.42 207.239 308.154 199.295 320.919 195.688C329.101 193.386 341.93 192.722 352.204 192.377C385.629 191.328 417.313 201.4 441.447 220.79C467.466 241.658 481.67 270.53 481.46 302.046C481.439 302.413 481.455 302.714 481.438 303.014C480.845 342.924 459.337 379.494 426.648 396.184C412.849 403.239 368.606 418.161 368.164 418.302L367.96 418.358L280.618 450.372L280.551 450.368ZM253.176 389.778L281.523 447.986L367.67 416.437C370.735 415.411 412.498 401.214 425.712 394.46C457.747 378.1 478.851 342.175 479.439 302.932C479.456 302.632 479.469 302.399 479.485 302.133C479.699 271.118 465.731 242.794 440.192 222.288C416.442 203.187 385.183 193.273 352.228 194.283C342.056 194.599 329.359 195.272 321.415 197.52C308.82 201.07 286.493 208.904 255.018 220.753L283.472 280.003L327.548 263.334C329.881 262.266 332.235 261.399 334.548 260.664L334.689 260.539L334.956 260.554C340.193 258.918 345.688 258.032 351.209 257.848C366.902 257.348 381.816 262.849 392.094 272.858C400.728 281.271 405.438 292.296 405.374 303.848C405.295 316.268 397.917 330.138 387.44 337.518C378.946 343.508 350.989 353.991 349.795 354.423L253.18 389.712L253.176 389.778Z"
        fill="#0E0A1E" />
    <path d="M280.612 326.228L250.885 265.302L253.478 220.229L283.199 281.255L280.612 326.228Z" fill="#0E0A1E" />
    <path
        d="M280.558 327.161C280.226 327.142 279.902 326.956 279.755 326.614L250.028 265.688C250.028 265.688 249.912 265.381 249.922 265.214L252.515 220.142C252.54 219.709 252.862 219.327 253.301 219.252C253.741 219.143 254.162 219.368 254.339 219.779L284.058 280.838C284.058 280.838 284.174 281.145 284.165 281.312L281.579 326.251C281.555 326.684 281.232 327.066 280.793 327.141C280.727 327.137 280.627 327.132 280.56 327.128L280.558 327.161ZM251.833 265.09L279.859 322.478L282.218 281.467L254.199 223.946L251.833 265.09Z"
        fill="#0E0A1E" />
    <path
        d="M141.367 96.9878L141.4 96.9898L228.128 65.2068L257.344 125.135L159.739 160.801C159.739 160.801 130.796 171.594 122.302 177.584C112.728 184.348 104.888 197.557 104.779 210.476C104.631 236.285 128.419 256.457 157.964 255.518C163.585 255.34 169.016 254.417 174.116 252.84C176.598 252.081 178.988 251.183 181.285 250.146L174.116 252.84C174.116 252.84 174.116 252.84 174.15 252.842L181.285 250.146L226.215 233.159L255.503 294.16C230.206 303.693 203.089 313.522 188.049 317.767C179.629 320.155 166.069 320.744 157.001 321.024C122.605 322.118 91.3977 311.305 68.4142 292.816C43.8001 273.064 28.5435 244.499 28.7584 212.315C28.7756 212.015 28.7596 211.714 28.7768 211.414C29.3551 174.074 48.505 136.701 83.0193 119.048C96.9198 111.965 141.369 96.9545 141.369 96.9545L141.402 96.9564"
        fill="url(#paint1_linear_1_4)" />
    <path
        d="M141.367 96.9878L141.4 96.9898L228.128 65.2068L257.344 125.135L159.739 160.801C159.739 160.801 130.796 171.594 122.302 177.584C112.728 184.348 104.888 197.557 104.779 210.476C104.631 236.285 128.419 256.457 157.964 255.518C163.585 255.34 169.016 254.417 174.116 252.84C176.598 252.081 178.988 251.183 181.285 250.146L174.116 252.84C174.116 252.84 174.116 252.84 174.15 252.842L181.285 250.146L226.215 233.159L255.503 294.16C230.206 303.693 203.089 313.522 188.049 317.767C179.629 320.155 166.069 320.744 157.001 321.024C122.605 322.118 91.3977 311.305 68.4142 292.816C43.8001 273.064 28.5435 244.499 28.7584 212.315C28.7756 212.015 28.7596 211.714 28.7768 211.414C29.3551 174.074 48.505 136.701 83.0193 119.048C96.9198 111.965 141.369 96.9545 141.369 96.9545L141.402 96.9564"
        fill="#0E0A1E" />
    <path
        d="M143.73 321.83C115.268 320.193 88.6793 310.38 67.7696 293.58C41.7501 272.712 27.5466 243.84 27.7565 212.324C27.7776 211.958 27.7615 211.656 27.7787 211.357C28.3713 171.446 49.8796 134.876 82.5684 118.187C96.3672 111.132 140.61 96.2093 141.053 96.0678L141.256 96.0126L228.599 63.9979L258.65 125.677L160.023 161.685C159.749 161.803 131.113 172.48 122.826 178.349C112.834 185.422 105.797 198.611 105.716 210.463C105.648 221.514 110.153 232.026 118.407 240.083C128.339 249.738 142.729 255.042 157.887 254.544C163.273 254.387 168.602 253.491 173.736 251.916L180.904 249.222L226.654 231.915L256.777 294.667L255.787 295.044C223.73 307.127 200.996 315.071 188.264 318.681C180.116 320.984 167.253 321.647 156.98 321.991C152.529 322.136 148.09 322.081 143.696 321.828L143.73 321.83ZM141.478 97.9626C138.413 98.9886 96.6498 113.185 83.4362 119.94C51.4009 136.299 30.297 172.225 29.7094 211.468C29.6922 211.767 29.6788 212 29.6635 212.267C29.4491 243.282 43.4169 271.606 68.9562 292.112C92.706 311.213 123.965 321.127 156.92 320.117C167.092 319.801 179.789 319.128 187.733 316.88C200.295 313.328 222.62 305.527 254.129 293.68L225.675 234.43L181.598 251.099C179.265 252.167 176.909 253.067 174.564 253.767L174.424 253.893L174.191 253.879C168.92 255.513 163.458 256.401 157.937 256.585C142.244 257.085 127.329 251.617 117.052 241.574C108.418 233.162 103.708 222.137 103.772 210.585C103.852 198.165 111.229 184.295 121.707 176.915C130.2 170.924 158.155 160.476 159.351 160.01L255.966 124.721L227.619 66.5134L141.472 98.0625L141.478 97.9626Z"
        fill="#0E0A1E" />
    <path
        d="M255.338 294.15C230.041 303.683 202.923 313.511 187.884 317.756C179.463 320.144 165.903 320.734 156.836 321.013C122.439 322.107 91.2321 311.295 68.2487 292.806C43.6345 273.054 28.378 244.489 28.5929 212.305C28.5929 212.305 2.88148 331.228 116.977 364.811C116.977 364.811 170.221 386.176 252.533 343.485L255.375 294.085L255.338 294.15Z"
        fill="#0E0A1E" />
    <path
        d="M145.148 370.908C127.106 369.87 117.113 365.922 116.623 365.727C57.3416 348.289 36.2813 307.4 29.0922 276.193C21.3145 242.447 27.6176 212.417 27.6681 212.119L29.6261 203.047L29.5598 212.328C29.3511 243.243 43.319 271.567 68.8583 292.074C92.6081 311.175 123.867 321.089 156.823 320.079C166.994 319.762 179.691 319.09 187.635 316.841C200.332 313.263 223 305.316 255.021 293.264L256.42 292.743L253.464 344.141L252.982 344.38C210.295 366.506 175.56 371.154 153.918 371.145C150.813 371.134 147.911 371.067 145.181 370.91L145.148 370.908ZM28.075 222.463C26.8133 233.946 25.9191 254.134 30.9499 275.832C38.0345 306.532 58.7689 346.701 117.228 363.925C117.849 364.161 170.949 384.549 251.563 342.929L254.288 295.56C222.949 307.35 200.693 315.121 188.131 318.674C179.983 320.977 167.12 321.64 156.847 321.984C123.421 323.034 91.7391 312.928 67.6032 293.571C44.4257 274.971 30.5993 249.995 28.0418 222.461L28.075 222.463Z"
        fill="#0E0A1E" />
    <path
        d="M257.311 125.131L254.404 175.663L138.578 218.029C138.578 218.029 117.793 224.615 113.59 236.13C113.59 236.13 86.0985 200.215 128.451 174.028C138.772 167.642 257.309 125.164 257.309 125.164L257.311 125.131Z"
        fill="#3C68FF" />
    <path
        d="M257.311 125.131L254.404 175.663L138.578 218.029C138.578 218.029 117.793 224.615 113.59 236.13C113.59 236.13 86.0985 200.215 128.451 174.028C138.772 167.642 257.309 125.164 257.309 125.164L257.311 125.131Z"
        fill="#0E0A1E" />
    <path
        d="M113.879 238.084L112.824 236.688C112.359 236.06 101.155 221.221 104.453 203.375C106.596 191.675 114.528 181.511 127.965 173.2C138.25 166.844 252.153 125.971 256.995 124.245L258.359 123.756L255.333 176.352L254.752 176.585L138.926 218.952C138.688 219.038 118.507 225.559 114.507 236.451L113.912 238.086L113.879 238.084ZM256.261 126.541C243.03 131.29 138.462 168.961 128.94 174.825C115.989 182.831 108.383 192.546 106.304 203.716C103.728 217.729 110.73 230.121 113.37 234.148C118.866 223.375 137.448 217.364 138.264 217.11L253.442 174.974L256.228 126.539L256.261 126.541Z"
        fill="#0E0A1E" />
    <path d="M297.943 110.304L257.312 125.133L228.127 65.2407L268.727 50.3759L297.943 110.304Z" fill="#EC796B" />
    <path d="M297.943 110.304L257.312 125.133L228.127 65.2407L268.727 50.3759L297.943 110.304Z" fill="#0E0A1E" />
    <path
        d="M256.842 126.34L226.82 64.7296L269.228 49.2007L299.279 110.88L256.84 126.374L256.842 126.34ZM229.465 65.7836L257.816 123.925L296.638 109.76L268.291 51.5515L229.5 65.7522L229.465 65.7836Z"
        fill="#0E0A1E" />
    <path d="M257.312 125.132L297.943 110.302L295.038 160.801L254.405 175.664L257.312 125.132Z" fill="#252236" />
    <path d="M257.312 125.132L297.943 110.302L295.038 160.801L254.405 175.664L257.312 125.132Z" fill="#0E0A1E" />
    <path
        d="M253.355 177.073L256.383 124.444L298.959 108.891L295.933 161.487L253.355 177.073ZM258.241 125.82L255.455 174.255L294.109 160.113L296.895 111.678L258.243 125.787L258.241 125.82Z"
        fill="#0E0A1E" />
    <path
        d="M241.561 256.753L243.844 212.999L243.921 211.667L273.431 272.881L318.361 255.894L325.496 253.198C325.496 253.198 325.496 253.198 325.53 253.2L318.361 255.894C320.658 254.857 323.05 253.926 325.53 253.2C330.63 251.623 336.06 250.7 341.682 250.523C371.225 249.617 394.514 269.76 394.866 295.564C395.043 308.166 386.46 319.194 386.46 319.194C377.69 304.429 359.811 294.75 339.1 295.395C333.479 295.573 328.049 296.496 322.948 298.073C322.948 298.073 322.937 298.073 322.915 298.071C320.466 298.832 318.077 299.73 315.779 300.767L270.883 317.756L241.595 256.755L241.561 256.753Z"
        fill="#3C68FF" />
    <path
        d="M241.561 256.753L243.844 212.999L243.921 211.667L273.431 272.881L318.361 255.894L325.496 253.198C325.496 253.198 325.496 253.198 325.53 253.2L318.361 255.894C320.658 254.857 323.05 253.926 325.53 253.2C330.63 251.623 336.06 250.7 341.682 250.523C371.225 249.617 394.514 269.76 394.866 295.564C395.043 308.166 386.46 319.194 386.46 319.194C377.69 304.429 359.811 294.75 339.1 295.395C333.479 295.573 328.049 296.496 322.948 298.073C322.948 298.073 322.937 298.073 322.915 298.071C320.466 298.832 318.077 299.73 315.779 300.767L270.883 317.756L241.595 256.755L241.561 256.753Z"
        fill="url(#paint2_radial_1_4)" />
    <path
        d="M270.346 318.962L240.582 256.931L242.879 212.944L243.262 208.023L273.903 271.64L317.98 254.971C320.312 253.903 322.669 253.003 325.013 252.303L325.154 252.178L325.387 252.191C330.625 250.555 336.12 249.669 341.641 249.486C357.032 249.002 371.722 254.322 381.914 264.093C390.715 272.515 395.65 283.687 395.806 295.485C395.973 308.253 387.558 319.258 387.199 319.705L386.839 320.152L385.846 319.995L385.601 319.613C376.678 304.605 358.857 295.664 339.084 296.264C333.731 296.423 328.437 297.288 323.37 298.867L323.166 298.922L270.317 318.893L270.346 318.962ZM242.508 256.541L271.289 316.511L315.332 299.84C317.527 298.831 319.884 297.931 322.33 297.204L322.471 297.078L322.737 297.093C328.008 295.46 333.47 294.571 338.991 294.388C358.899 293.763 376.928 302.582 386.461 317.425C388.543 314.339 394.004 305.335 393.866 295.541C393.714 284.243 388.983 273.584 380.563 265.518C370.718 256.101 356.551 250.978 341.694 251.459C336.308 251.617 330.946 252.511 325.846 254.088L318.677 256.781L272.927 274.089L244.674 215.418L242.507 256.575L242.508 256.541Z"
        fill="#211D31" />
    <path
        d="M470.866 294.092C470.866 294.092 472.406 331.186 472.113 337.448C471.534 374.788 448.363 417.04 413.851 434.66C399.95 441.743 355.501 456.753 355.501 456.753L355.468 456.751L268.74 488.534L230.094 452.612L232.851 404.676L271.498 440.599L358.226 408.816L358.259 408.818C358.259 408.818 402.706 393.84 416.608 386.725C451.121 369.105 470.306 331.7 470.851 294.358"
        fill="url(#paint3_linear_1_4)" />
    <path
        d="M268.476 489.654L268.031 489.261L229.034 453.051L231.935 402.619L271.661 439.505L358.08 407.872C361.145 406.846 402.908 392.649 416.122 385.894C448.157 369.535 469.261 333.61 469.849 294.367C469.849 294.367 469.862 294.134 469.864 294.1L471.773 294.01C471.853 295.517 473.305 331.237 473.014 337.466C472.399 377.175 447.684 418.403 414.205 435.481C400.406 442.536 356.163 457.459 355.72 457.6L355.517 457.655L268.415 489.55L268.476 489.654ZM231.018 452.23L268.904 487.441L355.322 455.807C358.387 454.781 400.151 440.584 413.365 433.83C446.226 417.05 470.533 376.533 471.111 337.457C471.31 333.995 470.866 320.81 470.49 309.934C465.344 343.638 445.378 373.149 416.99 387.648C403.191 394.702 358.948 409.625 358.505 409.766L358.302 409.821L271.2 441.716L270.755 441.323L233.599 406.789L230.985 452.228L231.018 452.23Z"
        fill="#211D31" />
    <path d="M228.108 503.397L198.891 443.469L201.649 395.533L230.865 455.461L228.108 503.397Z"
        fill="url(#paint4_linear_1_4)" />
    <path
        d="M228.052 504.362C227.719 504.343 227.396 504.158 227.249 503.815L198.032 443.887C198.032 443.887 197.916 443.58 197.926 443.413L200.683 395.478C200.708 395.045 201.031 394.663 201.469 394.588C201.91 394.48 202.331 394.704 202.508 395.115L231.724 455.043C231.724 455.043 231.84 455.35 231.83 455.517L229.073 503.452C229.048 503.885 228.725 504.267 228.287 504.342C228.22 504.339 228.121 504.333 228.054 504.329L228.052 504.362ZM199.87 443.291L227.353 499.68L229.884 455.672L202.401 399.284L199.87 443.291Z"
        fill="#211D31" />
    <path d="M271.469 440.53L230.838 455.359L201.653 395.466L242.285 380.603L271.469 440.53Z" fill="#EC796B" />
    <path d="M271.469 440.53L230.838 455.359L201.653 395.466L242.285 380.603L271.469 440.53Z"
        fill="url(#paint5_radial_1_4)" />
    <path
        d="M230.367 456.568L200.345 394.957L242.753 379.428L272.804 441.108L230.365 456.601L230.367 456.568ZM202.99 396.011L231.341 454.152L270.163 439.987L241.816 381.779L203.025 395.98L202.99 396.011Z"
        fill="#211D31" />
    <path d="M230.837 455.358L271.468 440.529L268.705 488.564L228.074 503.394L230.837 455.358Z" fill="#252236" />
    <path d="M230.837 455.358L271.468 440.529L268.705 488.564L228.074 503.394L230.837 455.358Z"
        fill="url(#paint6_radial_1_4)" />
    <path
        d="M227.058 504.806L229.942 454.674L272.518 439.121L269.636 489.22L227.058 504.806ZM231.8 456.05L229.157 501.988L267.811 487.846L270.454 441.908L231.802 456.017L231.8 456.05Z"
        fill="#211D31" />
    <path
        d="M358.257 408.851L358.223 408.849L271.496 440.632L242.279 380.704L339.885 345.038C339.885 345.038 368.827 334.246 377.321 328.255C386.895 321.491 394.735 308.282 394.844 295.363C394.993 269.555 371.204 249.383 341.659 250.322C336.038 250.499 330.608 251.423 325.507 252.999C323.025 253.758 320.636 254.656 318.339 255.693L325.507 252.999C325.507 252.999 325.507 252.999 325.474 252.998L318.339 255.693L273.409 272.68L244.12 211.679C269.417 202.146 296.535 192.317 311.574 188.072C319.995 185.685 333.555 185.095 342.622 184.815C377.019 183.721 408.226 194.534 431.209 213.023C455.823 232.775 471.08 261.34 470.865 293.524C470.848 293.824 470.864 294.125 470.847 294.425C470.268 331.765 451.119 369.138 416.604 386.791C402.704 393.874 358.255 408.885 358.255 408.885L358.222 408.883"
        fill="url(#paint7_linear_1_4)" />
    <path
        d="M358.257 408.851L358.223 408.849L271.496 440.632L242.279 380.704L339.885 345.038C339.885 345.038 368.827 334.246 377.321 328.255C386.895 321.491 394.735 308.282 394.844 295.363C394.993 269.555 371.204 249.383 341.659 250.322C336.038 250.499 330.608 251.423 325.507 252.999C323.025 253.758 320.636 254.656 318.339 255.693L325.507 252.999C325.507 252.999 325.507 252.999 325.474 252.998L318.339 255.693L273.409 272.68L244.12 211.679C269.417 202.146 296.535 192.317 311.574 188.072C319.995 185.685 333.555 185.095 342.622 184.815C377.019 183.721 408.226 194.534 431.209 213.023C455.823 232.775 471.08 261.34 470.865 293.524C470.848 293.824 470.864 294.125 470.847 294.425C470.268 331.765 451.119 369.138 416.604 386.791C402.704 393.874 358.255 408.885 358.255 408.885L358.222 408.883"
        fill="url(#paint8_radial_1_4)" />
    <path
        d="M271.027 441.807L240.976 380.128L339.603 344.12C339.877 344.002 368.513 333.325 376.8 327.456C386.792 320.383 393.829 307.194 393.91 295.342C393.978 284.291 389.473 273.779 381.219 265.723C371.287 256.067 356.895 250.797 341.739 251.261C336.353 251.419 331.024 252.314 325.924 253.891L325.857 253.888L273.005 273.892L242.882 211.14L243.873 210.763C275.896 198.678 298.63 190.734 311.395 187.127C319.576 184.825 332.406 184.16 342.68 183.816C376.105 182.767 407.789 192.839 431.923 212.229C457.942 233.097 472.146 261.969 471.936 293.485C471.915 293.851 471.931 294.153 471.914 294.452C471.321 334.363 449.813 370.933 417.124 387.623C403.325 394.677 359.082 409.6 358.64 409.741L358.436 409.796L271.094 441.811L271.027 441.807ZM243.652 381.217L271.999 439.425L358.146 407.876C361.211 406.85 402.974 392.653 416.188 385.899C448.223 369.539 469.327 333.614 469.915 294.371C469.932 294.071 469.945 293.838 469.961 293.572C470.175 262.557 456.207 234.233 430.668 213.726C406.918 194.626 375.659 184.711 342.704 185.721C332.532 186.038 319.835 186.71 311.891 188.959C299.296 192.509 276.969 200.343 245.494 212.192L273.948 271.442L318.024 254.773C320.357 253.705 322.711 252.838 325.024 252.103L325.165 251.977L325.432 251.993C330.669 250.357 336.164 249.471 341.685 249.287C357.378 248.787 372.292 254.288 382.57 264.297C391.204 272.709 395.914 283.735 395.85 295.287C395.771 307.707 388.393 321.577 377.916 328.957C369.422 334.947 341.465 345.429 340.271 345.862L243.656 381.15L243.652 381.217Z"
        fill="#211D31" />
    <path d="M271.088 317.667L241.361 256.741L243.954 211.668L273.675 272.694L271.088 317.667Z"
        fill="url(#paint9_linear_1_4)" />
    <path
        d="M271.034 318.6C270.702 318.581 270.378 318.395 270.231 318.053L240.504 257.127C240.504 257.127 240.388 256.82 240.398 256.653L242.991 211.58C243.015 211.148 243.338 210.765 243.777 210.69C244.217 210.582 244.638 210.807 244.815 211.218L274.534 272.277C274.534 272.277 274.65 272.584 274.641 272.751L272.055 317.69C272.03 318.123 271.708 318.505 271.269 318.58C271.203 318.576 271.103 318.571 271.036 318.567L271.034 318.6ZM242.309 256.529L270.335 313.917L272.694 272.906L244.675 215.385L242.309 256.529Z"
        fill="#211D31" />
    <path
        d="M131.843 88.4267L131.876 88.4286L218.604 56.6457L247.82 116.574L150.215 152.24C150.215 152.24 121.272 163.032 112.778 169.023C103.204 175.787 95.3639 188.996 95.2553 201.915C95.1066 227.724 118.895 247.895 148.44 246.956C154.061 246.779 159.492 245.856 164.592 244.279C167.074 243.52 169.463 242.622 171.761 241.585L164.592 244.279C164.592 244.279 164.592 244.279 164.625 244.281L171.761 241.585L216.691 224.598L245.979 285.599C220.682 295.132 193.565 304.961 178.525 309.206C170.105 311.593 156.544 312.183 147.477 312.463C113.08 313.557 81.8736 302.744 58.8901 284.255C34.276 264.503 19.0194 235.938 19.2343 203.754C19.2515 203.454 19.2355 203.153 19.2527 202.853C19.831 165.513 38.9809 128.14 73.4952 110.487C87.3957 103.404 131.845 88.3934 131.845 88.3934L131.878 88.3953"
        fill="url(#paint10_linear_1_4)" />
    <path
        d="M131.843 88.4267L131.876 88.4286L218.604 56.6457L247.82 116.574L150.215 152.24C150.215 152.24 121.272 163.032 112.778 169.023C103.204 175.787 95.3639 188.996 95.2553 201.915C95.1066 227.724 118.895 247.895 148.44 246.956C154.061 246.779 159.492 245.856 164.592 244.279C167.074 243.52 169.463 242.622 171.761 241.585L164.592 244.279C164.592 244.279 164.592 244.279 164.625 244.281L171.761 241.585L216.691 224.598L245.979 285.599C220.682 295.132 193.565 304.961 178.525 309.206C170.105 311.593 156.544 312.183 147.477 312.463C113.08 313.557 81.8736 302.744 58.8901 284.255C34.276 264.503 19.0194 235.938 19.2343 203.754C19.2515 203.454 19.2355 203.153 19.2527 202.853C19.831 165.513 38.9809 128.14 73.4952 110.487C87.3957 103.404 131.845 88.3934 131.845 88.3934L131.878 88.3953"
        fill="url(#paint11_radial_1_4)" />
    <path
        d="M134.206 313.269C105.744 311.632 79.1552 301.819 58.2455 285.019C32.226 264.151 18.0226 235.279 18.2324 203.763C18.2535 203.397 18.2374 203.095 18.2546 202.796C18.8472 162.885 40.3556 126.315 73.0444 109.626C86.8431 102.571 131.086 87.6483 131.529 87.5067L131.732 87.4516L219.075 55.4369L249.126 117.116L150.499 153.124C150.225 153.242 121.589 163.919 113.302 169.788C103.31 176.861 96.2725 190.05 96.1918 201.902C96.1239 212.953 100.629 223.465 108.883 231.522C118.814 241.177 133.205 246.481 148.363 245.983C153.749 245.826 159.078 244.93 164.212 243.355L171.38 240.661L217.13 223.354L247.253 286.106L246.263 286.483C214.206 298.566 191.472 306.51 178.74 310.12C170.592 312.423 157.729 313.086 147.456 313.43C143.005 313.575 138.566 313.52 134.172 313.267L134.206 313.269ZM131.954 89.4015C128.889 90.4275 87.1258 104.624 73.9121 111.379C41.8769 127.738 20.7729 163.664 20.1854 202.907C20.1682 203.206 20.1548 203.439 20.1394 203.706C19.925 234.721 33.8928 263.045 59.4321 283.551C83.182 302.652 114.441 312.566 147.396 311.556C157.568 311.239 170.265 310.567 178.209 308.319C190.771 304.766 213.096 296.966 244.605 285.119L216.151 225.869L172.074 242.538C169.741 243.606 167.385 244.506 165.04 245.206L164.899 245.331L164.666 245.318C159.396 246.952 153.934 247.84 148.413 248.023C132.72 248.523 117.805 243.056 107.528 233.013C98.8939 224.601 94.1843 213.576 94.2477 202.024C94.3276 189.604 101.705 175.734 112.183 168.354C120.676 162.363 148.631 151.915 149.827 151.449L246.442 116.16L218.095 57.9523L131.948 89.5014L131.954 89.4015Z"
        fill="#211D31" />
    <path
        d="M245.814 285.589C220.517 295.121 193.399 304.95 178.36 309.195C169.939 311.583 156.379 312.172 147.312 312.452C112.915 313.546 81.7081 302.734 58.7246 284.245C34.1105 264.493 18.854 235.928 19.0689 203.744C19.0689 203.744 -6.64256 322.667 107.453 356.25C107.453 356.25 160.697 377.615 243.009 334.924L245.851 285.524L245.814 285.589Z"
        fill="url(#paint12_linear_1_4)" />
    <path
        d="M135.624 362.347C117.582 361.309 107.589 357.361 107.099 357.166C47.8175 339.728 26.7572 298.839 19.5682 267.632C11.7904 233.886 18.0936 203.856 18.1441 203.558L20.1021 194.486L20.0358 203.767C19.8271 234.682 33.7949 263.006 59.3342 283.513C83.084 302.613 114.343 312.528 147.299 311.518C157.47 311.201 170.167 310.529 178.111 308.28C190.808 304.702 213.476 296.755 245.497 284.703L246.896 284.182L243.939 335.58L243.458 335.819C200.771 357.945 166.036 362.593 144.394 362.584C141.289 362.573 138.387 362.506 135.657 362.349L135.624 362.347ZM18.551 213.901C17.2892 225.385 16.3951 245.573 21.4258 267.271C28.5104 297.971 49.2448 338.14 107.704 355.364C108.325 355.6 161.425 375.988 242.039 334.368L244.764 286.999C213.425 298.789 191.169 306.56 178.607 310.112C170.459 312.416 157.596 313.079 147.322 313.423C113.897 314.472 82.215 304.367 58.0791 285.01C34.9017 266.41 21.0752 241.434 18.5177 213.9L18.551 213.901Z"
        fill="#211D31" />
    <path
        d="M247.787 116.57L244.88 167.102L129.054 209.468C129.054 209.468 108.269 216.054 104.066 227.569C104.066 227.569 76.5744 191.654 118.927 165.467C129.248 159.081 247.785 116.603 247.785 116.603L247.787 116.57Z"
        fill="#3C68FF" />
    <path
        d="M247.787 116.57L244.88 167.102L129.054 209.468C129.054 209.468 108.269 216.054 104.066 227.569C104.066 227.569 76.5744 191.654 118.927 165.467C129.248 159.081 247.785 116.603 247.785 116.603L247.787 116.57Z"
        fill="url(#paint13_radial_1_4)" />
    <path
        d="M104.355 229.523L103.3 228.127C102.835 227.499 91.6314 212.66 94.9291 194.814C97.0717 183.114 105.004 172.95 118.441 164.638C128.726 158.283 242.629 117.409 247.471 115.684L248.835 115.195L245.809 167.791L245.228 168.024L129.402 210.391C129.163 210.477 108.983 216.998 104.983 227.89L104.388 229.525L104.355 229.523ZM246.737 117.98C233.505 122.729 128.938 160.399 119.416 166.264C106.464 174.27 98.8585 183.985 96.7798 195.155C94.2036 209.167 101.206 221.56 103.846 225.586C109.342 214.814 127.924 208.803 128.74 208.549L243.918 166.413L246.704 117.978L246.737 117.98Z"
        fill="#211D31" />
    <path d="M288.419 101.743L247.788 116.572L218.603 56.6796L259.203 41.8148L288.419 101.743Z" fill="#EC796B" />
    <path d="M288.419 101.743L247.788 116.572L218.603 56.6796L259.203 41.8148L288.419 101.743Z"
        fill="url(#paint14_radial_1_4)" />
    <path
        d="M247.318 117.779L217.296 56.1685L259.704 40.6396L289.755 102.319L247.316 117.813L247.318 117.779ZM219.941 57.2225L248.292 115.364L287.114 101.198L258.767 42.9904L219.976 57.1911L219.941 57.2225Z"
        fill="#211D31" />
    <path d="M247.788 116.571L288.419 101.741L285.514 152.24L244.881 167.103L247.788 116.571Z" fill="#252236" />
    <path d="M247.788 116.571L288.419 101.741L285.514 152.24L244.881 167.103L247.788 116.571Z"
        fill="url(#paint15_radial_1_4)" />
    <path
        d="M243.831 168.512L246.859 115.883L289.435 100.33L286.409 152.926L243.831 168.512ZM248.717 117.259L245.93 165.694L284.585 151.552L287.371 103.117L248.719 117.226L248.717 117.259Z"
        fill="#211D31" />
    <path fill-rule="evenodd" clip-rule="evenodd"
        d="M35.8805 562.626L54.5366 537.934L36.3049 531.263V531.072L36.0928 530.994L36.3049 530.918V511.263L47.7011 515.359L35.7879 510.994L176.347 460.379L164.683 468.176L176.305 460.763V480.504L176.652 480.379L176.305 480.611V480.763L103.026 529.616L113.078 535.842L113.305 535.763V555.793L113.538 555.937L113.305 556.018V556.263L36.3049 582.763V582.614L36.2507 582.633L36.1854 582.626L36.3049 582.467V562.509L35.9458 562.633L35.8805 562.626Z"
        fill="#0E0A1E" />
    <path
        d="M36.1854 577.626L66.7177 537.215L36.0928 525.994L176.652 475.379L87.6301 534.891L113.538 550.937L36.2507 577.633L36.1854 577.626ZM47.2033 526.064L72.8074 535.458L46.7117 570.019L104.717 549.935L80.6004 535.019L148.71 489.479L47.2033 526.064Z"
        fill="#F2F4F3" />
    <path d="M36.3049 526.263V506.263L68.3049 517.763L56.8049 533.763L36.3049 526.263Z"
        fill="url(#paint16_linear_1_4)" />
    <path d="M36.3049 577.763V557.263L113.305 530.763V551.263L36.3049 577.763Z" fill="url(#paint17_linear_1_4)" />
    <path d="M176.305 475.763V455.763L83.8049 514.763L101.305 525.763L176.305 475.763Z"
        fill="url(#paint18_linear_1_4)" />
    <path
        d="M35.8805 557.626L66.4128 517.215L35.7879 505.994L176.347 455.379L87.3251 514.891L113.233 530.937L35.9458 557.633L35.8805 557.626Z"
        fill="#EC796B" />
    <path
        d="M35.8805 557.626L66.4128 517.215L35.7879 505.994L176.347 455.379L87.3251 514.891L113.233 530.937L35.9458 557.633L35.8805 557.626Z"
        fill="url(#paint19_radial_1_4)" />
    <path
        d="M35.8805 557.626L66.4128 517.215L35.7879 505.994L176.347 455.379L87.3251 514.891L113.233 530.937L35.9458 557.633L35.8805 557.626ZM46.8984 506.064L72.5025 515.458L46.4067 550.019L104.412 529.935L80.2954 515.019L148.405 469.479L46.8984 506.064Z"
        fill="#F2F4F3" />
    <path fill-rule="evenodd" clip-rule="evenodd"
        d="M311.114 85.0442L311.045 85.0905L311 85.0856L311.114 85.0442ZM359.55 52.3725L311.114 85.0442L362.283 66.3784L362.142 66.4737L311.417 85.0801V100.689L311.114 100.893L311 100.935L311.045 100.94L311.114 100.893L311.417 100.783V101.763L402.554 67.5373L407.275 65.8154L406.929 65.6905V50.0921L407.275 49.9662L395.576 45.7347L407.064 30.3982L406.926 30.4467L406.929 30.4421V14.7295L407.064 14.549L406.929 14.5963V14.5929L406.924 14.5981L354.124 33.0808L355.734 34.0688L354.377 33.3617V48.8416L354.124 48.93L354.377 49.0849V49.2109L359.55 52.3725ZM372.571 62.6256L382.442 59.0248L382.439 59.0284L372.497 62.6752L372.571 62.6256Z"
        fill="#0E0A1E" />
    <path
        d="M310.045 95.9397L370.942 54.8635L353.124 43.93L406.064 25.3982L385.235 53.2051L406.275 60.8154L310 95.9348L310.045 95.9397ZM359.173 44.637L375.758 54.8004L329.167 86.2332L398.693 60.8483L381.103 54.4775L398.905 30.6957L359.173 44.637Z"
        fill="#EC796B" />
    <path
        d="M310.045 95.9397L370.942 54.8635L353.124 43.93L406.064 25.3982L385.235 53.2051L406.275 60.8154L310 95.9348L310.045 95.9397ZM359.173 44.637L375.758 54.8004L329.167 86.2332L398.693 60.8483L381.103 54.4775L398.905 30.6957L359.173 44.637Z"
        fill="url(#paint20_radial_1_4)" />
    <path d="M405.929 25.4421V9.59293L404.678 10.8442L383.407 38.3717L393.417 42.1254L405.929 25.4421Z"
        fill="url(#paint21_linear_1_4)" />
    <path d="M353.377 44.2109V28.3617L373.397 38.7888L360.884 48.7988L353.377 44.2109Z"
        fill="url(#paint22_linear_1_4)" />
    <path d="M310.417 96.7635V80.0801L405.929 45.0451V60.8942L310.417 96.7635Z" fill="url(#paint23_linear_1_4)" />
    <path
        d="M402.458 12.2386L356.124 28.4528L373.348 39.0037L319.561 75.2309L402.464 44.9563L383.169 37.9906L402.458 12.2386Z"
        fill="#EC796B" />
    <path
        d="M402.458 12.2386L356.124 28.4528L373.348 39.0037L319.561 75.2309L402.464 44.9563L383.169 37.9906L402.458 12.2386Z"
        fill="url(#paint24_radial_1_4)" />
    <path
        d="M310.045 80.0906L370.942 39.0143L353.124 28.0808L406.064 9.54899L385.235 37.3559L406.275 44.9662L310 80.0856L310.045 80.0906ZM359.173 28.7878L375.758 38.9512L329.167 70.384L398.693 44.9991L381.103 38.6283L398.905 14.8465L359.173 28.7878Z"
        fill="white" />
    <defs>
        <linearGradient id="paint0_linear_1_4" x1="370.955" y1="193.864" x2="356.019" y2="453.508"
            gradientUnits="userSpaceOnUse">
            <stop stop-color="#7151EB" />
            <stop offset="1" stop-color="#C078FF" />
        </linearGradient>
        <linearGradient id="paint1_linear_1_4" x1="153.129" y1="60.8925" x2="138.193" y2="320.536"
            gradientUnits="userSpaceOnUse">
            <stop stop-color="#7151EB" />
            <stop offset="1" stop-color="#C078FF" />
        </linearGradient>
        <radialGradient id="paint2_radial_1_4" cx="0" cy="0" r="1" gradientUnits="userSpaceOnUse"
            gradientTransform="translate(345.501 248.479) rotate(-78.5488) scale(140.926 220.638)">
            <stop stop-color="#C672F2" />
            <stop offset="0.432516" stop-color="#DB7C9A" stop-opacity="0.2" />
        </radialGradient>
        <linearGradient id="paint3_linear_1_4" x1="266.547" y1="402.129" x2="405.667" y2="463.272"
            gradientUnits="userSpaceOnUse">
            <stop stop-color="#38EF7D" />
            <stop offset="1" stop-color="#11998E" />
        </linearGradient>
        <linearGradient id="paint4_linear_1_4" x1="202.074" y1="382.394" x2="269.445" y2="429.033"
            gradientUnits="userSpaceOnUse">
            <stop stop-color="#38EF7D" />
            <stop offset="1" stop-color="#11998E" />
        </linearGradient>
        <radialGradient id="paint5_radial_1_4" cx="0" cy="0" r="1" gradientUnits="userSpaceOnUse"
            gradientTransform="translate(251.605 436.097) rotate(39.6767) scale(59.0021 90.5789)">
            <stop stop-color="#B572FC" />
            <stop offset="0.59" stop-color="#7CA0FA" stop-opacity="0" />
        </radialGradient>
        <radialGradient id="paint6_radial_1_4" cx="0" cy="0" r="1" gradientUnits="userSpaceOnUse"
            gradientTransform="translate(275.676 426.262) rotate(127.541) scale(56.8595 61.4519)">
            <stop stop-color="#80A6FC" />
            <stop offset="1" stop-color="#7151EB" stop-opacity="0" />
        </radialGradient>
        <linearGradient id="paint7_linear_1_4" x1="361.431" y1="185.303" x2="346.494" y2="444.947"
            gradientUnits="userSpaceOnUse">
            <stop stop-color="#7151EB" />
            <stop offset="1" stop-color="#C078FF" />
        </linearGradient>
        <radialGradient id="paint8_radial_1_4" cx="0" cy="0" r="1" gradientUnits="userSpaceOnUse"
            gradientTransform="translate(395.567 274.898) rotate(158.355) scale(196.853 175.002)">
            <stop stop-color="#80A6FC" />
            <stop offset="1" stop-color="#7151EB" stop-opacity="0" />
        </radialGradient>
        <linearGradient id="paint9_linear_1_4" x1="242.463" y1="237.474" x2="291.153" y2="264.945"
            gradientUnits="userSpaceOnUse">
            <stop stop-color="#38EF7D" />
            <stop offset="1" stop-color="#11998E" />
        </linearGradient>
        <linearGradient id="paint10_linear_1_4" x1="143.605" y1="52.3314" x2="128.669" y2="311.975"
            gradientUnits="userSpaceOnUse">
            <stop stop-color="#7151EB" />
            <stop offset="1" stop-color="#C078FF" />
        </linearGradient>
        <radialGradient id="paint11_radial_1_4" cx="0" cy="0" r="1" gradientUnits="userSpaceOnUse"
            gradientTransform="translate(94.9975 206.523) rotate(175.162) scale(116.673 143.641)">
            <stop stop-color="#80A6FC" />
            <stop offset="1" stop-color="#7151EB" stop-opacity="0" />
        </radialGradient>
        <linearGradient id="paint12_linear_1_4" x1="13.4857" y1="221.798" x2="123.387" y2="399.465"
            gradientUnits="userSpaceOnUse">
            <stop stop-color="#38EF7D" />
            <stop offset="1" stop-color="#11998E" />
        </linearGradient>
        <radialGradient id="paint13_radial_1_4" cx="0" cy="0" r="1" gradientUnits="userSpaceOnUse"
            gradientTransform="translate(147.179 143.916) rotate(-162.832) scale(173.05 226.437)">
            <stop stop-color="#C672F2" />
            <stop offset="0.432516" stop-color="#DB7C9A" stop-opacity="0.2" />
        </radialGradient>
        <radialGradient id="paint14_radial_1_4" cx="0" cy="0" r="1" gradientUnits="userSpaceOnUse"
            gradientTransform="translate(268.556 97.3103) rotate(39.6767) scale(59.0021 90.5788)">
            <stop stop-color="#B572FC" />
            <stop offset="0.59" stop-color="#7CA0FA" stop-opacity="0" />
        </radialGradient>
        <radialGradient id="paint15_radial_1_4" cx="0" cy="0" r="1" gradientUnits="userSpaceOnUse"
            gradientTransform="translate(292.658 86.9205) rotate(126.546) scale(58.3572 62.1694)">
            <stop stop-color="#80A6FC" />
            <stop offset="1" stop-color="#7151EB" stop-opacity="0" />
        </radialGradient>
        <linearGradient id="paint16_linear_1_4" x1="40.8641" y1="522.25" x2="60.1607" y2="529.57"
            gradientUnits="userSpaceOnUse">
            <stop stop-color="#38EF7D" />
            <stop offset="1" stop-color="#11998E" />
        </linearGradient>
        <linearGradient id="paint17_linear_1_4" x1="47.2754" y1="558.085" x2="88.6008" y2="580.158"
            gradientUnits="userSpaceOnUse">
            <stop stop-color="#38EF7D" />
            <stop offset="1" stop-color="#11998E" />
        </linearGradient>
        <linearGradient id="paint18_linear_1_4" x1="96.9837" y1="496.455" x2="150.802" y2="519.642"
            gradientUnits="userSpaceOnUse">
            <stop stop-color="#38EF7D" />
            <stop offset="1" stop-color="#11998E" />
        </linearGradient>
        <radialGradient id="paint19_radial_1_4" cx="0" cy="0" r="1" gradientUnits="userSpaceOnUse"
            gradientTransform="translate(129.71 536.219) rotate(38.2906) scale(103.574 149.145)">
            <stop stop-color="#B572FC" />
            <stop offset="0.59" stop-color="#7CA0FA" stop-opacity="0" />
        </radialGradient>
        <radialGradient id="paint20_radial_1_4" cx="0" cy="0" r="1" gradientUnits="userSpaceOnUse"
            gradientTransform="translate(378.338 81.4255) rotate(38.0532) scale(71.049 102.309)">
            <stop stop-color="#B572FC" />
            <stop offset="0.59" stop-color="#7CA0FA" stop-opacity="0" />
        </radialGradient>
        <linearGradient id="paint21_linear_1_4" x1="386.616" y1="28.6791" x2="401.38" y2="32.0549"
            gradientUnits="userSpaceOnUse">
            <stop stop-color="#38EF7D" />
            <stop offset="1" stop-color="#11998E" />
        </linearGradient>
        <linearGradient id="paint22_linear_1_4" x1="356.229" y1="40.2421" x2="368.761" y2="44.2444"
            gradientUnits="userSpaceOnUse">
            <stop stop-color="#38EF7D" />
            <stop offset="1" stop-color="#11998E" />
        </linearGradient>
        <linearGradient id="paint23_linear_1_4" x1="324.025" y1="75.1096" x2="372.38" y2="104.224"
            gradientUnits="userSpaceOnUse">
            <stop stop-color="#38EF7D" />
            <stop offset="1" stop-color="#11998E" />
        </linearGradient>
        <radialGradient id="paint24_radial_1_4" cx="0" cy="0" r="1" gradientUnits="userSpaceOnUse"
            gradientTransform="translate(378.472 62.1276) rotate(38.8822) scale(61.7387 90.1407)">
            <stop stop-color="#B572FC" />
            <stop offset="0.59" stop-color="#7CA0FA" stop-opacity="0" />
        </radialGradient>
    </defs>
</svg>